# This file uses centimeters as units for non-parametric coordinates.

mtllib box.mtl
g default
v 109.793261 40.734368 34.098364
v 110.377198 39.693755 34.054999
v 109.889633 40.723100 29.914465
v 110.436221 39.686056 29.871100
v 109.208942 34.337949 35.612013
v 109.837495 33.293089 35.568648
v 109.867846 33.612711 28.307601
v 109.239293 34.657571 28.350966
v 104.652976 34.770563 35.612013
v 104.514678 33.798529 35.568648
v 104.545029 34.118151 28.307601
v 104.683327 35.090185 28.350966
v 109.963320 42.010594 31.999739
v 110.528527 40.971766 31.956381
v 109.852721 33.453410 31.926558
v 104.529900 33.958850 31.926558
v 104.668202 34.930876 31.969924
v 109.224167 34.498262 31.969924
v 109.793261 40.734368 34.098364
v 110.377198 39.693755 34.054999
v 109.889633 40.723100 29.914465
v 110.436221 39.686056 29.871100
v 109.208942 34.337949 35.612013
v 109.837495 33.293089 35.568648
v 109.867846 33.612711 28.307601
v 109.239293 34.657571 28.350966
v 104.652976 34.770563 35.612013
v 104.514678 33.798529 35.568648
v 104.545029 34.118151 28.307601
v 104.683327 35.090185 28.350966
v 109.963320 42.010594 31.999739
v 110.528527 40.971766 31.956381
v 109.852721 33.453410 31.926558
v 104.529900 33.958850 31.926558
v 104.668202 34.930876 31.969924
v 109.224167 34.498262 31.969924
v 138.702043 26.146186 41.652266
v 142.830055 67.286772 41.513411
v 97.318966 30.297418 41.319167
v 101.446967 71.437963 41.180319
v 134.782205 30.911607 41.602564
v 138.041530 63.394855 41.493018
v 105.366796 66.672496 41.230010
v 102.107454 34.189333 41.339583
v 134.816679 30.910643 39.455576
v 138.075988 63.393906 39.345953
v 105.401303 66.671501 39.082972
v 102.141915 34.188308 39.192614
v 138.902214 26.127061 0.127974
v 142.671057 67.301747 -0.091371
v 138.702033 26.146087 41.652388
v 142.830038 67.286658 41.513518
v 139.297335 30.482780 4.481001
v 142.273102 62.992927 4.307814
v 142.262476 63.168826 37.147086
v 139.286724 30.658686 37.320273
v 137.159973 30.688050 4.462019
v 140.135740 63.198194 4.288832
v 140.125122 63.374092 37.128096
v 137.149362 30.863964 37.301299
v 142.671058 67.301782 -0.091234
v 138.902199 26.127099 0.128104
v 101.192144 71.067618 0.215178
v 97.499380 29.885829 0.377051
v 137.869475 63.409746 -0.067987
v 134.953795 30.893973 0.059790
v 102.246435 33.827865 0.324713
v 105.162122 66.343649 0.196921
v 137.903732 63.405394 2.078978
v 134.988051 30.889594 2.206770
v 102.280706 33.823493 2.471709
v 105.196391 66.339301 2.343909
v 138.902216 26.127175 0.127944
v 138.702035 26.146194 41.652381
v 97.499374 29.885898 0.376906
v 97.318970 30.297418 41.319274
v 134.195614 26.628221 4.554411
v 134.329815 26.230397 37.198203
v 101.663434 29.595764 37.373496
v 101.529234 29.993580 4.729720
v 134.432920 28.762057 4.589125
v 134.567121 28.364241 37.232909
v 101.900740 31.729593 37.408194
v 101.766539 32.127409 4.764433
v 142.830031 67.286719 41.513541
v 142.671074 67.301816 -0.091371
v 101.446973 71.437909 41.180449
v 101.192149 71.067648 0.215010
v 138.302394 67.919042 36.822974
v 138.462995 67.786993 4.177138
v 105.759897 70.774895 4.004180
v 105.599300 70.906951 36.650015
v 138.124147 65.779181 36.821051
v 138.284755 65.647120 4.175215
v 105.581672 68.635025 4.002272
v 105.421071 68.767086 36.648085
v 101.192153 71.067664 0.215025
v 97.499385 29.885875 0.376891
v 101.446978 71.437928 41.180441
v 97.318978 30.297403 41.319274
v 100.848324 66.876647 4.481001
v 97.734090 34.379496 4.307814
v 97.743952 34.203549 37.147078
v 100.858178 66.700693 37.320265
v 102.984787 66.662296 4.462004
v 99.870560 34.165122 4.288817
v 99.880422 33.989182 37.128111
v 102.994648 66.486341 37.301291
vt 0.026335 0.176770
vt 0.028916 0.177013
vt 0.025658 0.213832
vt 0.023348 0.214166
vt 0.021855 0.222038
vt 0.026613 0.221551
vt 0.025449 0.229191
vt 0.023113 0.229294
vt 0.029206 0.265146
vt 0.021273 0.265957
vt 0.043487 0.220485
vt 0.009003 0.222590
vt 0.005097 0.033588
vt 0.055320 0.034257
vt 0.052833 0.220766
vt 0.050362 0.406089
vt 0.000139 0.405420
vt 0.002610 0.220096
vt 0.026335 0.176770
vt 0.028916 0.177013
vt 0.025658 0.213832
vt 0.023348 0.214166
vt 0.021855 0.222038
vt 0.026613 0.221551
vt 0.025449 0.229191
vt 0.023113 0.229294
vt 0.029206 0.265146
vt 0.021273 0.265957
vt 0.043487 0.220485
vt 0.009003 0.222590
vt 0.005097 0.033588
vt 0.055320 0.034257
vt 0.052833 0.220766
vt 0.050362 0.406089
vt 0.000139 0.405420
vt 0.002610 0.220096
vt 0.926342 0.924630
vt 0.080100 0.924606
vt 0.080059 0.077791
vt 0.926385 0.077766
vt 1.000000 1.000000
vt 0.000000 1.000000
vt 0.050479 0.953814
vt 0.956223 0.953832
vt 0.000000 0.000000
vt 0.050446 0.048123
vt 1.000000 0.000000
vt 0.956256 0.048103
vt 0.926342 0.924630
vt 0.080100 0.924606
vt 0.080059 0.077791
vt 0.926385 0.077766
vt 1.000000 1.000000
vt 0.000000 1.000000
vt 0.050479 0.953814
vt 0.956223 0.953832
vt 0.000000 0.000000
vt 0.050446 0.048123
vt 1.000000 0.000000
vt 0.956256 0.048103
vt 0.926342 0.924630
vt 0.080100 0.924606
vt 0.080059 0.077791
vt 0.926385 0.077766
vt 1.000000 1.000000
vt 0.000000 1.000000
vt 0.050479 0.953814
vt 0.956223 0.953832
vt 0.000000 0.000000
vt 0.050446 0.048123
vt 1.000000 0.000000
vt 0.956256 0.048103
vt 0.926342 0.924630
vt 0.080100 0.924606
vt 0.080059 0.077791
vt 0.926385 0.077766
vt 1.000000 1.000000
vt 0.000000 1.000000
vt 0.050479 0.953814
vt 0.956223 0.953832
vt 0.000000 0.000000
vt 0.050446 0.048123
vt 1.000000 0.000000
vt 0.956256 0.048103
vt 0.926342 0.924630
vt 0.080100 0.924606
vt 0.080059 0.077791
vt 0.926385 0.077766
vt 1.000000 1.000000
vt 0.000000 1.000000
vt 0.050479 0.953814
vt 0.956223 0.953832
vt 0.000000 0.000000
vt 0.050446 0.048123
vt 1.000000 0.000000
vt 0.956256 0.048103
vt 0.926342 0.924630
vt 0.080100 0.924606
vt 0.080059 0.077791
vt 0.926385 0.077766
vt 1.000000 1.000000
vt 0.000000 1.000000
vt 0.050479 0.953814
vt 0.956223 0.953832
vt 0.000000 0.000000
vt 0.050446 0.048123
vt 1.000000 0.000000
vt 0.956256 0.048103
vn 0.203111 0.077495 0.976084
vn 0.160842 0.052525 0.985582
vn 0.377407 0.181660 0.908055
vn 0.377407 0.181660 0.908055
vn 0.878238 0.476951 0.034889
vn 0.878516 0.477545 0.012706
vn 0.830872 0.458194 -0.315769
vn 0.830872 0.458194 -0.315769
vn 0.302074 0.209253 -0.930035
vn 0.302074 0.209253 -0.930035
vn 0.124133 0.111145 -0.986021
vn 0.158189 0.130067 -0.978805
vn 0.996022 -0.088908 0.005991
vn 0.636242 -0.771010 -0.027207
vn 0.575012 -0.817571 -0.030657
vn 0.995776 -0.091696 0.004632
vn -0.632481 0.774203 0.024035
vn -0.690550 0.722959 0.021725
vn -0.995112 0.098308 -0.009393
vn -0.994632 0.102977 -0.010156
vn -0.004176 -0.043975 0.999024
vn -0.004176 -0.043975 0.999024
vn -0.094440 -0.994550 -0.044174
vn -0.094439 -0.994550 -0.044173
vn 0.004176 0.043975 -0.999024
vn 0.004176 0.043975 -0.999024
vn 0.094439 0.994550 0.044175
vn 0.094438 0.994550 0.044174
vn 0.830673 0.445098 0.334471
vn 0.830673 0.445098 0.334471
vn 0.563812 -0.825374 -0.029543
vn 0.996249 -0.086221 0.007301
vn -0.094440 -0.994550 -0.044174
vn 0.094438 0.994550 0.044172
vn -0.623480 0.781413 0.025799
vn -0.995553 0.093807 -0.008657
vn 0.203111 0.077495 0.976084
vn 0.160842 0.052525 0.985582
vn 0.377407 0.181660 0.908055
vn 0.377407 0.181660 0.908055
vn 0.878238 0.476951 0.034889
vn 0.878516 0.477545 0.012706
vn 0.830872 0.458194 -0.315769
vn 0.830872 0.458194 -0.315769
vn 0.302074 0.209253 -0.930035
vn 0.302074 0.209253 -0.930035
vn 0.124133 0.111145 -0.986021
vn 0.158189 0.130067 -0.978805
vn 0.996022 -0.088908 0.005991
vn 0.636242 -0.771010 -0.027207
vn 0.575012 -0.817571 -0.030657
vn 0.995776 -0.091696 0.004632
vn -0.632481 0.774203 0.024035
vn -0.690550 0.722959 0.021725
vn -0.995112 0.098308 -0.009393
vn -0.994632 0.102977 -0.010156
vn -0.004176 -0.043975 0.999024
vn -0.004176 -0.043975 0.999024
vn -0.094440 -0.994550 -0.044174
vn -0.094439 -0.994550 -0.044173
vn 0.004176 0.043975 -0.999024
vn 0.004176 0.043975 -0.999024
vn 0.094439 0.994550 0.044175
vn 0.094438 0.994550 0.044174
vn 0.830673 0.445098 0.334471
vn 0.830673 0.445098 0.334471
vn 0.563812 -0.825374 -0.029543
vn 0.996249 -0.086221 0.007301
vn -0.094440 -0.994550 -0.044174
vn 0.094438 0.994550 0.044172
vn -0.623480 0.781413 0.025799
vn -0.995553 0.093807 -0.008657
vn -0.007633 0.004141 0.999962
vn -0.007633 0.004141 0.999962
vn -0.007633 0.004141 0.999962
vn -0.007633 0.004141 0.999962
vn -0.007634 0.004140 0.999962
vn -0.007634 0.004140 0.999962
vn -0.007634 0.004140 0.999962
vn -0.007634 0.004140 0.999962
vn -0.007633 0.004149 0.999962
vn -0.007633 0.004149 0.999962
vn -0.007633 0.004149 0.999962
vn -0.007633 0.004149 0.999962
vn -0.007635 0.004140 0.999962
vn -0.007635 0.004140 0.999962
vn -0.007635 0.004140 0.999962
vn -0.007635 0.004140 0.999962
vn -0.007632 0.004148 0.999962
vn -0.007632 0.004148 0.999962
vn -0.007632 0.004148 0.999962
vn -0.007632 0.004148 0.999962
vn -0.994882 0.099771 -0.016015
vn -0.994882 0.099771 -0.016015
vn -0.994882 0.099771 -0.016015
vn -0.994882 0.099771 -0.016015
vn -0.099800 -0.995007 -0.001153
vn -0.099800 -0.995007 -0.001153
vn -0.099800 -0.995007 -0.001153
vn -0.099800 -0.995007 -0.001153
vn 0.994881 -0.099772 0.016025
vn 0.994881 -0.099772 0.016025
vn 0.994881 -0.099772 0.016025
vn 0.994881 -0.099772 0.016025
vn 0.099802 0.995007 0.001141
vn 0.099802 0.995007 0.001141
vn 0.099802 0.995007 0.001141
vn 0.099802 0.995007 0.001141
vn 0.995837 -0.091148 0.000810
vn 0.995837 -0.091148 0.000810
vn 0.995837 -0.091148 0.000810
vn 0.995837 -0.091148 0.000810
vn 0.995837 -0.091148 0.000811
vn 0.995837 -0.091148 0.000811
vn 0.995837 -0.091148 0.000811
vn 0.995837 -0.091148 0.000811
vn 0.993498 -0.113841 -0.001734
vn 0.993498 -0.113841 -0.001734
vn 0.993498 -0.113841 -0.001734
vn 0.993498 -0.113841 -0.001734
vn 0.995377 -0.096016 -0.002397
vn 0.995377 -0.096016 -0.002397
vn 0.995377 -0.096016 -0.002397
vn 0.995377 -0.096016 -0.002397
vn 0.993946 -0.109823 0.003106
vn 0.993946 -0.109823 0.003106
vn 0.993946 -0.109823 0.003106
vn 0.993946 -0.109823 0.003106
vn -0.008296 0.006086 0.999947
vn -0.008296 0.006086 0.999947
vn -0.008296 0.006086 0.999947
vn -0.008296 0.006086 0.999947
vn -0.095643 -0.995402 0.005301
vn -0.095643 -0.995402 0.005301
vn -0.095643 -0.995402 0.005301
vn -0.095643 -0.995402 0.005301
vn 0.008296 -0.006087 -0.999947
vn 0.008296 -0.006087 -0.999947
vn 0.008296 -0.006087 -0.999947
vn 0.008296 -0.006087 -0.999947
vn 0.095645 0.995401 -0.005301
vn 0.095645 0.995401 -0.005301
vn 0.095645 0.995401 -0.005301
vn 0.095645 0.995401 -0.005301
vn -0.008385 -0.003178 -0.999960
vn -0.008385 -0.003178 -0.999960
vn -0.008385 -0.003178 -0.999960
vn -0.008385 -0.003178 -0.999960
vn 0.004637 -0.005131 -0.999976
vn 0.004637 -0.005131 -0.999976
vn 0.004637 -0.005131 -0.999976
vn 0.004637 -0.005131 -0.999976
vn -0.008117 -0.013108 -0.999881
vn -0.008117 -0.013108 -0.999881
vn -0.008117 -0.013108 -0.999881
vn -0.008117 -0.013108 -0.999881
vn -0.008383 -0.003179 -0.999960
vn -0.008383 -0.003179 -0.999960
vn -0.008383 -0.003179 -0.999960
vn -0.008383 -0.003179 -0.999960
vn -0.007686 0.000163 -0.999970
vn -0.007686 0.000163 -0.999970
vn -0.007686 0.000163 -0.999970
vn -0.007686 0.000163 -0.999970
vn -0.995870 0.089362 0.016072
vn -0.995870 0.089362 0.016072
vn -0.995870 0.089362 0.016072
vn -0.995870 0.089362 0.016072
vn 0.089348 0.996000 0.000604
vn 0.089348 0.996000 0.000604
vn 0.089348 0.996000 0.000604
vn 0.089348 0.996000 0.000604
vn 0.995870 -0.089363 -0.016076
vn 0.995869 -0.089363 -0.016076
vn 0.995869 -0.089363 -0.016076
vn 0.995869 -0.089363 -0.016076
vn -0.089348 -0.996000 -0.000592
vn -0.089348 -0.996000 -0.000592
vn -0.089348 -0.996000 -0.000592
vn -0.089348 -0.996000 -0.000592
vn -0.102535 -0.994661 -0.011700
vn -0.102535 -0.994661 -0.011700
vn -0.102535 -0.994661 -0.011700
vn -0.102535 -0.994661 -0.011700
vn -0.064313 -0.997916 -0.005154
vn -0.064313 -0.997917 -0.005154
vn -0.064313 -0.997917 -0.005154
vn -0.064313 -0.997916 -0.005154
vn -0.100872 -0.992198 0.073266
vn -0.100872 -0.992198 0.073266
vn -0.100872 -0.992198 0.073266
vn -0.100872 -0.992198 0.073266
vn -0.070757 -0.997494 0.000141
vn -0.070757 -0.997494 0.000141
vn -0.070757 -0.997494 0.000141
vn -0.070757 -0.997494 0.000141
vn -0.095209 -0.993553 0.061551
vn -0.095209 -0.993553 0.061551
vn -0.095209 -0.993553 0.061551
vn -0.095209 -0.993553 0.061551
vn -0.993868 0.110440 0.005432
vn -0.993868 0.110440 0.005432
vn -0.993868 0.110440 0.005432
vn -0.993868 0.110440 0.005432
vn -0.003648 0.016666 -0.999855
vn -0.003648 0.016666 -0.999855
vn -0.003648 0.016666 -0.999855
vn -0.003648 0.016666 -0.999855
vn 0.993868 -0.110441 -0.005432
vn 0.993868 -0.110441 -0.005432
vn 0.993868 -0.110441 -0.005432
vn 0.993868 -0.110441 -0.005432
vn 0.003648 -0.016672 0.999854
vn 0.003648 -0.016672 0.999854
vn 0.003648 -0.016672 0.999854
vn 0.003648 -0.016672 0.999854
vn 0.091004 0.995844 -0.003581
vn 0.091004 0.995844 -0.003581
vn 0.091004 0.995844 -0.003581
vn 0.091004 0.995844 -0.003581
vn 0.126963 0.991906 -0.001560
vn 0.126963 0.991906 -0.001560
vn 0.126963 0.991906 -0.001560
vn 0.126963 0.991906 -0.001560
vn 0.090583 0.995500 -0.027817
vn 0.090583 0.995500 -0.027817
vn 0.090583 0.995500 -0.027817
vn 0.090583 0.995500 -0.027817
vn 0.093457 0.995599 -0.006914
vn 0.093457 0.995599 -0.006914
vn 0.093457 0.995599 -0.006914
vn 0.093457 0.995599 -0.006914
vn 0.095868 0.995369 0.007040
vn 0.095868 0.995369 0.007040
vn 0.095868 0.995369 0.007040
vn 0.095868 0.995369 0.007040
vn -0.996535 0.083013 -0.005238
vn -0.996535 0.083013 -0.005238
vn -0.996535 0.083013 -0.005238
vn -0.996535 0.083013 -0.005238
vn -0.005330 -0.000451 0.999986
vn -0.005330 -0.000451 0.999986
vn -0.005330 -0.000451 0.999986
vn -0.005330 -0.000451 0.999986
vn 0.996535 -0.083004 0.005238
vn 0.996535 -0.083004 0.005238
vn 0.996535 -0.083004 0.005238
vn 0.996535 -0.083005 0.005238
vn 0.005330 0.000457 -0.999986
vn 0.005330 0.000457 -0.999986
vn 0.005330 0.000457 -0.999986
vn 0.005330 0.000457 -0.999986
vn -0.995440 0.095389 0.000810
vn -0.995440 0.095389 0.000810
vn -0.995440 0.095389 0.000810
vn -0.995440 0.095389 0.000810
vn -0.995621 0.091985 -0.016651
vn -0.995621 0.091985 -0.016651
vn -0.995621 0.091985 -0.016651
vn -0.995621 0.091985 -0.016651
vn -0.996933 0.078221 -0.002554
vn -0.996933 0.078221 -0.002554
vn -0.996933 0.078221 -0.002554
vn -0.996933 0.078221 -0.002554
vn -0.995147 0.097867 0.010172
vn -0.995148 0.097867 0.010172
vn -0.995148 0.097867 0.010172
vn -0.995147 0.097867 0.010172
vn -0.994568 0.104040 0.003293
vn -0.994568 0.104040 0.003293
vn -0.994568 0.104040 0.003293
vn -0.994568 0.104040 0.003293
vn 0.008277 -0.006122 0.999947
vn 0.008277 -0.006122 0.999947
vn 0.008277 -0.006122 0.999947
vn 0.008277 -0.006122 0.999947
vn 0.099882 0.994985 0.005301
vn 0.099882 0.994985 0.005301
vn 0.099882 0.994985 0.005301
vn 0.099882 0.994985 0.005301
vn -0.008265 0.006121 -0.999947
vn -0.008265 0.006121 -0.999947
vn -0.008265 0.006121 -0.999947
vn -0.008265 0.006121 -0.999947
vn -0.099873 -0.994986 -0.005301
vn -0.099873 -0.994986 -0.005301
vn -0.099873 -0.994986 -0.005301
vn -0.099873 -0.994986 -0.005301
s 1
g book86:group8_book:pasted__pCube3 pasted__pasted__pasted__group38 pasted__pasted__group40 pasted__group43 group77
usemtl lambert9SG
f 5/1/1 6/2/2 2/3/3 1/4/4
s 2
f 13/5/5 14/6/6 4/7/7 3/8/8
s 3
f 3/8/9 4/7/10 7/9/11 8/10/12
s 4
f 14/6/13 15/11/14 7/9/15 4/7/16
s 5
f 8/10/17 18/12/18 13/5/19 3/8/20
s 1
f 9/13/21 10/14/22 6/2/2 5/1/1
s 4
f 15/11/14 16/15/23 11/16/24 7/9/15
s 3
f 8/10/12 7/9/11 11/16/25 12/17/26
s 5
f 12/17/27 17/18/28 18/12/18 8/10/17
s 2
f 1/4/29 2/3/30 14/6/6 13/5/5
s 4
f 6/2/31 15/11/14 14/6/13 2/3/32
f 10/14/33 16/15/23 15/11/14 6/2/31
s 5
f 18/12/18 17/18/28 9/13/34 5/1/35
f 13/5/19 18/12/18 5/1/35 1/4/36
s 6
f 23/19/37 24/20/38 20/21/39 19/22/40
s 7
f 31/23/41 32/24/42 22/25/43 21/26/44
s 8
f 21/26/45 22/25/46 25/27/47 26/28/48
s 9
f 32/24/49 33/29/50 25/27/51 22/25/52
s 10
f 26/28/53 36/30/54 31/23/55 21/26/56
s 6
f 27/31/57 28/32/58 24/20/38 23/19/37
s 9
f 33/29/50 34/33/59 29/34/60 25/27/51
s 8
f 26/28/48 25/27/47 29/34/61 30/35/62
s 10
f 30/35/63 35/36/64 36/30/54 26/28/53
s 7
f 19/22/65 20/21/66 32/24/42 31/23/41
s 9
f 24/20/67 33/29/50 32/24/49 20/21/68
f 28/32/69 34/33/59 33/29/50 24/20/67
s 10
f 36/30/54 35/36/64 27/31/70 23/19/71
f 31/23/55 36/30/54 23/19/71 19/22/72
s off
f 45/37/73 46/38/74 47/39/75 48/40/76
f 37/41/77 38/42/78 42/43/79 41/44/80
f 38/42/81 40/45/82 43/46/83 42/43/84
f 40/45/85 39/47/86 44/48/87 43/46/88
f 39/47/89 37/41/90 41/44/91 44/48/92
f 41/44/93 42/43/94 46/38/95 45/37/96
f 42/43/97 43/46/98 47/39/99 46/38/100
f 43/46/101 44/48/102 48/40/103 47/39/104
f 44/48/105 41/44/106 45/37/107 48/40/108
f 57/49/109 58/50/110 59/51/111 60/52/112
f 49/53/113 50/54/114 54/55/115 53/56/116
f 50/54/117 52/57/118 55/58/119 54/55/120
f 52/57/121 51/59/122 56/60/123 55/58/124
f 51/59/125 49/53/126 53/56/127 56/60/128
f 53/56/129 54/55/130 58/50/131 57/49/132
f 54/55/133 55/58/134 59/51/135 58/50/136
f 55/58/137 56/60/138 60/52/139 59/51/140
f 56/60/141 53/56/142 57/49/143 60/52/144
f 69/61/145 70/62/146 71/63/147 72/64/148
f 61/65/149 62/66/150 66/67/151 65/68/152
f 62/66/153 64/69/154 67/70/155 66/67/156
f 64/69/157 63/71/158 68/72/159 67/70/160
f 63/71/161 61/65/162 65/68/163 68/72/164
f 65/68/165 66/67/166 70/62/167 69/61/168
f 66/67/169 67/70/170 71/63/171 70/62/172
f 67/70/173 68/72/174 72/64/175 71/63/176
f 68/72/177 65/68/178 69/61/179 72/64/180
f 81/73/181 82/74/182 83/75/183 84/76/184
f 73/77/185 74/78/186 78/79/187 77/80/188
f 74/78/189 76/81/190 79/82/191 78/79/192
f 76/81/193 75/83/194 80/84/195 79/82/196
f 75/83/197 73/77/198 77/80/199 80/84/200
f 77/80/201 78/79/202 82/74/203 81/73/204
f 78/79/205 79/82/206 83/75/207 82/74/208
f 79/82/209 80/84/210 84/76/211 83/75/212
f 80/84/213 77/80/214 81/73/215 84/76/216
f 93/85/217 94/86/218 95/87/219 96/88/220
f 85/89/221 86/90/222 90/91/223 89/92/224
f 86/90/225 88/93/226 91/94/227 90/91/228
f 88/93/229 87/95/230 92/96/231 91/94/232
f 87/95/233 85/89/234 89/92/235 92/96/236
f 89/92/237 90/91/238 94/86/239 93/85/240
f 90/91/241 91/94/242 95/87/243 94/86/244
f 91/94/245 92/96/246 96/88/247 95/87/248
f 92/96/249 89/92/250 93/85/251 96/88/252
f 105/97/253 106/98/254 107/99/255 108/100/256
f 97/101/257 98/102/258 102/103/259 101/104/260
f 98/102/261 100/105/262 103/106/263 102/103/264
f 100/105/265 99/107/266 104/108/267 103/106/268
f 99/107/269 97/101/270 101/104/271 104/108/272
f 101/104/273 102/103/274 106/98/275 105/97/276
f 102/103/277 103/106/278 107/99/279 106/98/280
f 103/106/281 104/108/282 108/100/283 107/99/284
f 104/108/285 101/104/286 105/97/287 108/100/288
