# This file uses centimeters as units for non-parametric coordinates.

mtllib Platform.mtl
g Platform:default1
v -7.548295 0.000000 -5.455212
v -7.548294 0.000000 4.786541
v -7.548295 2.229006 -5.455212
v -7.548294 2.229006 4.786541
v 7.548294 2.229006 -5.455212
v 7.548295 2.229006 4.786541
v 7.548294 0.000000 -5.455212
v 7.548295 0.000000 4.786541
vt 0.007634 0.834678
vt 0.160091 0.131525
vt 0.833781 0.131525
vt 0.007634 0.263914
vt 0.160091 0.263914
vt 0.160091 0.834678
vt 0.833781 0.834678
vt 0.833781 0.263914
vt 0.979622 0.263914
vt 0.979622 0.834678
vn -1.000000 0.000000 0.000000
vn -1.000000 0.000000 0.000000
vn -1.000000 0.000000 0.000000
vn -1.000000 0.000000 0.000000
vn 0.000000 1.000000 0.000000
vn 0.000000 1.000000 0.000000
vn 0.000000 1.000000 0.000000
vn 0.000000 1.000000 0.000000
vn 1.000000 0.000000 0.000000
vn 1.000000 0.000000 0.000000
vn 1.000000 0.000000 0.000000
vn 1.000000 0.000000 0.000000
vn 0.000000 0.000000 1.000000
vn 0.000000 0.000000 1.000000
vn 0.000000 0.000000 1.000000
vn 0.000000 0.000000 1.000000
s off
g Platform:group1 Platform:pCube2 Platform:polySurface1 group1
usemtl Platform:initialShadingGroup
f 1/1/1 2/4/2 4/5/3 3/6/4
f 3/6/5 4/5/6 6/8/7 5/7/8
f 5/7/9 6/8/10 8/9/11 7/10/12
f 2/2/13 8/3/14 6/8/15 4/5/16
