# This file uses centimeters as units for non-parametric coordinates.

mtllib Wall.mtl
g Wall:default1
v 0.000000 4.023378 -0.037392
v 4.023378 4.023378 -0.037392
v 0.000000 0.230672 -0.037392
v 4.023378 0.230672 -0.037392
v 0.000000 0.000000 0.037391
v 4.023378 0.000000 0.037391
v 4.023378 0.230672 0.027802
v 4.023378 0.230084 0.031471
v 4.023378 0.228412 0.034582
v 4.023378 0.225909 0.036661
v 4.023378 0.222956 0.037391
v 0.000000 0.222956 0.037391
v 0.000000 0.225909 0.036661
v 0.000000 0.228412 0.034582
v 0.000000 0.230084 0.031471
v 0.000000 0.230672 0.027802
v 4.023378 0.140646 0.037391
v 4.023378 0.137693 0.036661
v 4.023378 0.135190 0.034582
v 4.023378 0.133517 0.031471
v 4.023378 0.132929 0.027802
v 0.000000 0.132929 0.027802
v 0.000000 0.133517 0.031471
v 0.000000 0.135190 0.034582
v 0.000000 0.137693 0.036661
v 0.000000 0.140646 0.037391
v 4.023378 0.132929 0.015013
v 4.023378 0.132342 0.011344
v 4.023378 0.130670 0.008233
v 4.023378 0.128166 0.006154
v 4.023378 0.125213 0.005424
v 0.000000 0.125213 0.005424
v 0.000000 0.128166 0.006154
v 0.000000 0.130670 0.008233
v 0.000000 0.132342 0.011344
v 0.000000 0.132929 0.015013
v 4.023378 0.112685 0.005424
v 4.023378 0.109733 0.006154
v 4.023378 0.107229 0.008233
v 4.023378 0.105557 0.011344
v 4.023378 0.104969 0.015013
v 0.000000 0.104969 0.015013
v 0.000000 0.105557 0.011344
v 0.000000 0.107229 0.008233
v 0.000000 0.109733 0.006154
v 0.000000 0.112685 0.005424
v 4.023378 0.104969 0.027802
v 4.023378 0.104382 0.031471
v 4.023378 0.102709 0.034582
v 4.023378 0.100206 0.036661
v 4.023378 0.097253 0.037391
v 0.000000 0.097253 0.037391
v 0.000000 0.100206 0.036661
v 0.000000 0.102709 0.034582
v 0.000000 0.104382 0.031471
v 0.000000 0.104969 0.027802
v 0.000000 4.023378 -0.037392
v 4.023378 4.023378 -0.037392
v 0.000000 8.046757 -0.037392
v 4.023378 8.046757 -0.037392
v 4.023378 8.046757 -0.037392
v 0.000000 8.046757 -0.037392
v 4.023378 12.190241 -0.037392
v 0.000000 12.190241 -0.037392
v 4.023378 4.023378 -0.037392
v 8.046757 4.023378 -0.037392
v 4.023378 0.230672 -0.037392
v 8.046757 0.230672 -0.037392
v 4.023378 0.000000 0.037391
v 8.046757 0.000000 0.037391
v 8.046757 0.230672 0.027802
v 8.046757 0.230084 0.031471
v 8.046757 0.228412 0.034582
v 8.046757 0.225909 0.036661
v 8.046757 0.222956 0.037391
v 4.023378 0.222956 0.037391
v 4.023378 0.225909 0.036661
v 4.023378 0.228412 0.034582
v 4.023378 0.230084 0.031471
v 4.023378 0.230672 0.027802
v 8.046757 0.140646 0.037391
v 8.046757 0.137693 0.036661
v 8.046757 0.135190 0.034582
v 8.046757 0.133517 0.031471
v 8.046757 0.132929 0.027802
v 4.023378 0.132929 0.027802
v 4.023378 0.133517 0.031471
v 4.023378 0.135190 0.034582
v 4.023378 0.137693 0.036661
v 4.023378 0.140646 0.037391
v 8.046757 0.132929 0.015013
v 8.046757 0.132342 0.011344
v 8.046757 0.130670 0.008233
v 8.046757 0.128166 0.006154
v 8.046757 0.125213 0.005424
v 4.023378 0.125213 0.005424
v 4.023378 0.128166 0.006154
v 4.023378 0.130670 0.008233
v 4.023378 0.132342 0.011344
v 4.023378 0.132929 0.015013
v 8.046757 0.112685 0.005424
v 8.046757 0.109733 0.006154
v 8.046757 0.107229 0.008233
v 8.046757 0.105557 0.011344
v 8.046757 0.104969 0.015013
v 4.023378 0.104969 0.015013
v 4.023378 0.105557 0.011344
v 4.023378 0.107229 0.008233
v 4.023378 0.109733 0.006154
v 4.023378 0.112685 0.005424
v 8.046757 0.104969 0.027802
v 8.046757 0.104382 0.031471
v 8.046757 0.102709 0.034582
v 8.046757 0.100206 0.036661
v 8.046757 0.097253 0.037391
v 4.023378 0.097253 0.037391
v 4.023378 0.100206 0.036661
v 4.023378 0.102709 0.034582
v 4.023378 0.104382 0.031471
v 4.023378 0.104969 0.027802
v 4.023378 4.023378 -0.037392
v 8.046757 4.023378 -0.037392
v 4.023378 8.046757 -0.037392
v 8.046757 8.046757 -0.037392
v 8.046757 8.046757 -0.037392
v 4.023378 8.046757 -0.037392
v 8.046757 12.190241 -0.037392
v 4.023378 12.190241 -0.037392
v 8.046757 4.023378 -0.037392
v 12.750000 4.023378 -0.037392
v 8.046757 0.230672 -0.037392
v 12.750000 0.230672 -0.037392
v 8.046757 0.000000 0.037391
v 12.750000 0.000000 0.037391
v 12.750000 0.230672 0.027802
v 12.750000 0.230084 0.031471
v 12.750000 0.228412 0.034582
v 12.750000 0.225909 0.036661
v 12.750000 0.222956 0.037391
v 8.046757 0.222956 0.037391
v 8.046757 0.225909 0.036661
v 8.046757 0.228412 0.034582
v 8.046757 0.230084 0.031471
v 8.046757 0.230672 0.027802
v 12.750000 0.140646 0.037391
v 12.750000 0.137693 0.036661
v 12.750000 0.135190 0.034582
v 12.750000 0.133517 0.031471
v 12.750000 0.132929 0.027802
v 8.046757 0.132929 0.027802
v 8.046757 0.133517 0.031471
v 8.046757 0.135190 0.034582
v 8.046757 0.137693 0.036661
v 8.046757 0.140646 0.037391
v 12.750000 0.132929 0.015013
v 12.750000 0.132342 0.011344
v 12.750000 0.130670 0.008233
v 12.750000 0.128166 0.006154
v 12.750000 0.125213 0.005424
v 8.046757 0.125213 0.005424
v 8.046757 0.128166 0.006154
v 8.046757 0.130670 0.008233
v 8.046757 0.132342 0.011344
v 8.046757 0.132929 0.015013
v 12.750000 0.112685 0.005424
v 12.750000 0.109733 0.006154
v 12.750000 0.107229 0.008233
v 12.750000 0.105557 0.011344
v 12.750000 0.104969 0.015013
v 8.046757 0.104969 0.015013
v 8.046757 0.105557 0.011344
v 8.046757 0.107229 0.008233
v 8.046757 0.109733 0.006154
v 8.046757 0.112685 0.005424
v 12.750000 0.104969 0.027802
v 12.750000 0.104382 0.031471
v 12.750000 0.102709 0.034582
v 12.750000 0.100206 0.036661
v 12.750000 0.097253 0.037391
v 8.046757 0.097253 0.037391
v 8.046757 0.100206 0.036661
v 8.046757 0.102709 0.034582
v 8.046757 0.104382 0.031471
v 8.046757 0.104969 0.027802
v 8.046757 4.023378 -0.037392
v 12.750000 4.023378 -0.037392
v 8.046757 8.046757 -0.037392
v 12.750000 8.046757 -0.037392
v 12.750000 8.046757 -0.037392
v 8.046757 8.046757 -0.037392
v 12.750000 12.190241 -0.037392
v 8.046757 12.190241 -0.037392
vt 0.000041 0.078212
vt 0.315600 0.078239
vt 0.315574 0.330895
vt 0.000014 0.330867
vt 0.000043 -0.000043
vt 0.315602 -0.000016
vt 0.315601 0.007952
vt 0.000042 0.007925
vt 0.000041 0.048433
vt 0.315600 0.048460
vt 0.000042 0.011480
vt 0.315601 0.011507
vt 0.315600 0.025792
vt 0.000041 0.025765
vt 0.315601 0.011040
vt 0.000042 0.011013
vt 0.000042 0.011232
vt 0.315601 0.011259
vt 0.000042 0.009739
vt 0.315601 0.009766
vt 0.315601 0.010792
vt 0.000042 0.010765
vt 0.315601 0.008969
vt 0.000042 0.008942
vt 0.000042 0.008722
vt 0.315601 0.008749
vt 0.315600 0.029063
vt 0.000041 0.029036
vt 0.315600 0.036092
vt 0.000041 0.036064
vt 0.315600 0.043824
vt 0.000041 0.043797
vt 0.315601 0.011025
vt 0.000042 0.010998
vt 0.315601 0.011108
vt 0.000042 0.011081
vt 0.315601 0.011277
vt 0.000042 0.011250
vt 0.315601 0.011022
vt 0.000042 0.010995
vt 0.315601 0.011191
vt 0.000042 0.011164
vt 0.315601 0.011274
vt 0.000042 0.011247
vt 0.315601 0.009080
vt 0.000042 0.009053
vt 0.315601 0.009270
vt 0.000042 0.009243
vt 0.315601 0.009511
vt 0.000042 0.009484
vt 0.315601 0.008206
vt 0.000042 0.008179
vt 0.315601 0.008447
vt 0.000042 0.008420
vt 0.315601 0.008638
vt 0.000042 0.008611
vt 0.000014 0.330867
vt 0.315574 0.330895
vt 0.315545 0.660519
vt -0.000014 0.660492
vt 0.315516 0.999984
vt -0.000043 0.999957
vt -0.000014 0.660492
vt 0.315545 0.660519
vt 0.315600 0.078239
vt 0.631159 0.078266
vt 0.631133 0.330922
vt 0.315574 0.330895
vt 0.315602 -0.000016
vt 0.631161 0.000011
vt 0.631160 0.007979
vt 0.315601 0.007952
vt 0.315600 0.048460
vt 0.631159 0.048487
vt 0.315601 0.011507
vt 0.631160 0.011534
vt 0.631159 0.025819
vt 0.315600 0.025792
vt 0.631160 0.011067
vt 0.315601 0.011040
vt 0.315601 0.011259
vt 0.631160 0.011286
vt 0.315601 0.009766
vt 0.631160 0.009793
vt 0.631160 0.010819
vt 0.315601 0.010792
vt 0.631160 0.008996
vt 0.315601 0.008969
vt 0.315601 0.008749
vt 0.631160 0.008776
vt 0.631159 0.043419
vt 0.315600 0.043392
vt 0.631159 0.029331
vt 0.315600 0.029304
vt 0.631159 0.036309
vt 0.315600 0.036282
vt 0.631160 0.011052
vt 0.315601 0.011025
vt 0.631160 0.011135
vt 0.315601 0.011108
vt 0.631160 0.011304
vt 0.315601 0.011277
vt 0.631160 0.011049
vt 0.315601 0.011022
vt 0.631160 0.011218
vt 0.315601 0.011191
vt 0.631160 0.011301
vt 0.315601 0.011274
vt 0.631160 0.009107
vt 0.315601 0.009080
vt 0.631160 0.009297
vt 0.315601 0.009270
vt 0.631160 0.009538
vt 0.315601 0.009511
vt 0.631160 0.008233
vt 0.315601 0.008206
vt 0.631160 0.008474
vt 0.315601 0.008447
vt 0.631160 0.008665
vt 0.315601 0.008638
vt 0.315574 0.330895
vt 0.631133 0.330922
vt 0.631104 0.660546
vt 0.315545 0.660519
vt 0.631075 1.000011
vt 0.315516 0.999984
vt 0.315545 0.660519
vt 0.631104 0.660546
vt 0.631159 0.078266
vt 1.000041 0.078298
vt 1.000014 0.330953
vt 0.631133 0.330922
vt 0.631161 0.000011
vt 1.000043 0.000043
vt 1.000042 0.008011
vt 0.631160 0.007979
vt 0.631159 0.048487
vt 1.000041 0.048519
vt 0.631160 0.011534
vt 1.000042 0.011566
vt 1.000041 0.025851
vt 0.631159 0.025819
vt 1.000042 0.011098
vt 0.631160 0.011067
vt 0.631160 0.011286
vt 1.000042 0.011318
vt 0.631160 0.009793
vt 1.000042 0.009824
vt 1.000042 0.010851
vt 0.631160 0.010819
vt 1.000042 0.009027
vt 0.631160 0.008996
vt 0.631160 0.008776
vt 1.000042 0.008808
vt 1.000041 0.029122
vt 0.631159 0.029090
vt 1.000041 0.036150
vt 0.631159 0.036119
vt 1.000041 0.043882
vt 0.631159 0.043851
vt 1.000042 0.011083
vt 0.631160 0.011052
vt 1.000042 0.011167
vt 0.631160 0.011135
vt 1.000042 0.011336
vt 0.631160 0.011304
vt 1.000042 0.011080
vt 0.631160 0.011049
vt 1.000042 0.011250
vt 0.631160 0.011218
vt 1.000042 0.011333
vt 0.631160 0.011301
vt 1.000042 0.009139
vt 0.631160 0.009107
vt 1.000042 0.009329
vt 0.631160 0.009297
vt 1.000042 0.009570
vt 0.631160 0.009538
vt 1.000042 0.008265
vt 0.631160 0.008233
vt 1.000042 0.008506
vt 0.631160 0.008474
vt 1.000042 0.008696
vt 0.631160 0.008665
vt 0.631133 0.330922
vt 1.000014 0.330953
vt 0.999986 0.660578
vt 0.631104 0.660546
vt 0.999957 1.000043
vt 0.631075 1.000011
vt 0.631104 0.660546
vt 0.999986 0.660578
vn 0.000000 0.000000 1.000000
vn 0.000000 0.000000 1.000000
vn 0.000000 0.000000 1.000000
vn 0.000000 0.000000 1.000000
vn 0.000000 0.000000 1.000000
vn 0.000000 0.000000 1.000000
vn 0.000000 0.007280 0.999974
vn 0.000000 0.007280 0.999974
vn 0.000000 1.000000 0.000000
vn 0.000000 1.000000 0.000000
vn 0.000000 0.999964 0.008527
vn 0.000000 0.999964 0.008527
vn 0.000000 -0.008556 0.999963
vn 0.000000 -0.008556 0.999963
vn 0.000000 0.008556 0.999963
vn 0.000000 0.008556 0.999963
vn 0.000000 -0.999364 0.035670
vn 0.000000 -0.999364 0.035670
vn 0.000000 -0.999364 0.035672
vn 0.000000 -0.999364 0.035672
vn 0.000000 0.047074 0.998891
vn 0.000000 0.047074 0.998891
vn 0.000000 -0.047074 0.998891
vn 0.000000 -0.047074 0.998891
vn 0.000000 0.999364 0.035672
vn 0.000000 0.999364 0.035672
vn 0.000000 0.999364 0.035658
vn 0.000000 0.999364 0.035658
vn 0.000000 0.008556 0.999963
vn 0.000000 0.457685 0.889114
vn 0.000000 0.457685 0.889114
vn 0.000000 0.008556 0.999963
vn 0.000000 0.457685 0.889114
vn 0.000000 0.779103 0.626896
vn 0.000000 0.779103 0.626896
vn 0.000000 0.457685 0.889114
vn 0.000000 0.779103 0.626896
vn 0.000000 0.948693 0.316200
vn 0.000000 0.948693 0.316200
vn 0.000000 0.779103 0.626896
vn 0.000000 0.948693 0.316200
vn 0.000000 0.999964 0.008527
vn 0.000000 0.999964 0.008527
vn 0.000000 0.948693 0.316200
vn 0.000000 -0.999364 0.035670
vn 0.000000 -0.948693 0.316200
vn 0.000000 -0.948693 0.316200
vn 0.000000 -0.999364 0.035670
vn 0.000000 -0.948693 0.316200
vn 0.000000 -0.779117 0.626879
vn 0.000000 -0.779117 0.626879
vn 0.000000 -0.948693 0.316200
vn 0.000000 -0.779117 0.626879
vn 0.000000 -0.457673 0.889121
vn 0.000000 -0.457673 0.889121
vn 0.000000 -0.779117 0.626879
vn 0.000000 -0.457673 0.889121
vn 0.000000 -0.008556 0.999963
vn 0.000000 -0.008556 0.999963
vn 0.000000 -0.457673 0.889121
vn 0.000000 -0.047074 0.998891
vn 0.000000 -0.457673 0.889121
vn 0.000000 -0.457673 0.889121
vn 0.000000 -0.047074 0.998891
vn 0.000000 -0.457673 0.889121
vn 0.000000 -0.779117 0.626879
vn 0.000000 -0.779117 0.626879
vn 0.000000 -0.457673 0.889121
vn 0.000000 -0.779117 0.626879
vn 0.000000 -0.948679 0.316240
vn 0.000000 -0.948679 0.316240
vn 0.000000 -0.779117 0.626879
vn 0.000000 -0.948679 0.316240
vn 0.000000 -0.999364 0.035672
vn 0.000000 -0.999364 0.035672
vn 0.000000 -0.948679 0.316240
vn 0.000000 0.999364 0.035672
vn 0.000000 0.948679 0.316240
vn 0.000000 0.948679 0.316240
vn 0.000000 0.999364 0.035672
vn 0.000000 0.948679 0.316240
vn 0.000000 0.779117 0.626879
vn 0.000000 0.779117 0.626879
vn 0.000000 0.948679 0.316240
vn 0.000000 0.779117 0.626879
vn 0.000000 0.457673 0.889121
vn 0.000000 0.457673 0.889121
vn 0.000000 0.779117 0.626879
vn 0.000000 0.457673 0.889121
vn 0.000000 0.047074 0.998891
vn 0.000000 0.047074 0.998891
vn 0.000000 0.457673 0.889121
vn 0.000000 0.007280 0.999974
vn 0.000000 0.457673 0.889121
vn 0.000000 0.457673 0.889121
vn 0.000000 0.007280 0.999974
vn 0.000000 0.457673 0.889121
vn 0.000000 0.779103 0.626896
vn 0.000000 0.779103 0.626896
vn 0.000000 0.457673 0.889121
vn 0.000000 0.779103 0.626896
vn 0.000000 0.948693 0.316200
vn 0.000000 0.948693 0.316200
vn 0.000000 0.779103 0.626896
vn 0.000000 0.948693 0.316200
vn 0.000000 0.999364 0.035658
vn 0.000000 0.999364 0.035658
vn 0.000000 0.948693 0.316200
vn 0.000000 0.000000 1.000000
vn 0.000000 0.000000 1.000000
vn 0.000000 0.000000 1.000000
vn 0.000000 0.000000 1.000000
vn 0.000000 0.000000 1.000000
vn 0.000000 0.000000 1.000000
vn 0.000000 0.000000 1.000000
vn 0.000000 0.000000 1.000000
vn 0.000000 0.000000 1.000000
vn 0.000000 0.000000 1.000000
vn 0.000000 0.000000 1.000000
vn 0.000000 0.000000 1.000000
vn 0.000000 0.000000 1.000000
vn 0.000000 0.000000 1.000000
vn 0.000000 0.007280 0.999974
vn 0.000000 0.007280 0.999974
vn 0.000000 1.000000 0.000000
vn 0.000000 1.000000 0.000000
vn 0.000000 0.999964 0.008527
vn 0.000000 0.999964 0.008527
vn 0.000000 -0.008556 0.999963
vn 0.000000 -0.008556 0.999963
vn 0.000000 0.008556 0.999963
vn 0.000000 0.008556 0.999963
vn 0.000000 -0.999364 0.035670
vn 0.000000 -0.999364 0.035670
vn 0.000000 -0.999364 0.035672
vn 0.000000 -0.999364 0.035672
vn 0.000000 0.047074 0.998891
vn 0.000000 0.047074 0.998891
vn 0.000000 -0.047074 0.998891
vn 0.000000 -0.047074 0.998891
vn 0.000000 0.999364 0.035672
vn 0.000000 0.999364 0.035672
vn 0.000000 0.999364 0.035658
vn 0.000000 0.999364 0.035658
vn 0.000000 0.008556 0.999963
vn 0.000000 0.457685 0.889114
vn 0.000000 0.457685 0.889114
vn 0.000000 0.008556 0.999963
vn 0.000000 0.457685 0.889114
vn 0.000000 0.779103 0.626896
vn 0.000000 0.779103 0.626896
vn 0.000000 0.457685 0.889114
vn 0.000000 0.779103 0.626896
vn 0.000000 0.948693 0.316200
vn 0.000000 0.948693 0.316200
vn 0.000000 0.779103 0.626896
vn 0.000000 0.948693 0.316200
vn 0.000000 0.999964 0.008527
vn 0.000000 0.999964 0.008527
vn 0.000000 0.948693 0.316200
vn 0.000000 -0.999364 0.035670
vn 0.000000 -0.948693 0.316200
vn 0.000000 -0.948693 0.316200
vn 0.000000 -0.999364 0.035670
vn 0.000000 -0.948693 0.316200
vn 0.000000 -0.779117 0.626879
vn 0.000000 -0.779117 0.626879
vn 0.000000 -0.948693 0.316200
vn 0.000000 -0.779117 0.626879
vn 0.000000 -0.457673 0.889121
vn 0.000000 -0.457673 0.889121
vn 0.000000 -0.779117 0.626879
vn 0.000000 -0.457673 0.889121
vn 0.000000 -0.008556 0.999963
vn 0.000000 -0.008556 0.999963
vn 0.000000 -0.457673 0.889121
vn 0.000000 -0.047074 0.998891
vn 0.000000 -0.457673 0.889121
vn 0.000000 -0.457673 0.889121
vn 0.000000 -0.047074 0.998891
vn 0.000000 -0.457673 0.889121
vn 0.000000 -0.779117 0.626879
vn 0.000000 -0.779117 0.626879
vn 0.000000 -0.457673 0.889121
vn 0.000000 -0.779117 0.626879
vn 0.000000 -0.948679 0.316240
vn 0.000000 -0.948679 0.316240
vn 0.000000 -0.779117 0.626879
vn 0.000000 -0.948679 0.316240
vn 0.000000 -0.999364 0.035672
vn 0.000000 -0.999364 0.035672
vn 0.000000 -0.948679 0.316240
vn 0.000000 0.999364 0.035672
vn 0.000000 0.948679 0.316240
vn 0.000000 0.948679 0.316240
vn 0.000000 0.999364 0.035672
vn 0.000000 0.948679 0.316240
vn 0.000000 0.779117 0.626879
vn 0.000000 0.779117 0.626879
vn 0.000000 0.948679 0.316240
vn 0.000000 0.779117 0.626879
vn 0.000000 0.457673 0.889121
vn 0.000000 0.457673 0.889121
vn 0.000000 0.779117 0.626879
vn 0.000000 0.457673 0.889121
vn 0.000000 0.047074 0.998891
vn 0.000000 0.047074 0.998891
vn 0.000000 0.457673 0.889121
vn 0.000000 0.007280 0.999974
vn 0.000000 0.457673 0.889121
vn 0.000000 0.457673 0.889121
vn 0.000000 0.007280 0.999974
vn 0.000000 0.457673 0.889121
vn 0.000000 0.779103 0.626896
vn 0.000000 0.779103 0.626896
vn 0.000000 0.457673 0.889121
vn 0.000000 0.779103 0.626896
vn 0.000000 0.948693 0.316200
vn 0.000000 0.948693 0.316200
vn 0.000000 0.779103 0.626896
vn 0.000000 0.948693 0.316200
vn 0.000000 0.999364 0.035658
vn 0.000000 0.999364 0.035658
vn 0.000000 0.948693 0.316200
vn 0.000000 0.000000 1.000000
vn 0.000000 0.000000 1.000000
vn 0.000000 0.000000 1.000000
vn 0.000000 0.000000 1.000000
vn 0.000000 0.000000 1.000000
vn 0.000000 0.000000 1.000000
vn 0.000000 0.000000 1.000000
vn 0.000000 0.000000 1.000000
vn 0.000000 0.000000 1.000000
vn 0.000000 0.000000 1.000000
vn 0.000000 0.000000 1.000000
vn 0.000000 0.000000 1.000000
vn 0.000000 0.000000 1.000000
vn 0.000000 0.000000 1.000000
vn 0.000000 0.007280 0.999974
vn 0.000000 0.007280 0.999974
vn 0.000000 1.000000 0.000000
vn 0.000000 1.000000 0.000000
vn 0.000000 0.999964 0.008527
vn 0.000000 0.999964 0.008527
vn 0.000000 -0.008556 0.999963
vn 0.000000 -0.008556 0.999963
vn 0.000000 0.008556 0.999963
vn 0.000000 0.008556 0.999963
vn 0.000000 -0.999364 0.035670
vn 0.000000 -0.999364 0.035670
vn 0.000000 -0.999364 0.035672
vn 0.000000 -0.999364 0.035672
vn 0.000000 0.047074 0.998891
vn 0.000000 0.047074 0.998891
vn 0.000000 -0.047074 0.998891
vn 0.000000 -0.047074 0.998891
vn 0.000000 0.999364 0.035672
vn 0.000000 0.999364 0.035672
vn 0.000000 0.999364 0.035658
vn 0.000000 0.999364 0.035658
vn 0.000000 0.008556 0.999963
vn 0.000000 0.457685 0.889114
vn 0.000000 0.457685 0.889114
vn 0.000000 0.008556 0.999963
vn 0.000000 0.457685 0.889114
vn 0.000000 0.779103 0.626896
vn 0.000000 0.779103 0.626896
vn 0.000000 0.457685 0.889114
vn 0.000000 0.779103 0.626896
vn 0.000000 0.948693 0.316200
vn 0.000000 0.948693 0.316200
vn 0.000000 0.779103 0.626896
vn 0.000000 0.948693 0.316200
vn 0.000000 0.999964 0.008527
vn 0.000000 0.999964 0.008527
vn 0.000000 0.948693 0.316200
vn 0.000000 -0.999364 0.035670
vn 0.000000 -0.948693 0.316200
vn 0.000000 -0.948693 0.316200
vn 0.000000 -0.999364 0.035670
vn 0.000000 -0.948693 0.316200
vn 0.000000 -0.779117 0.626879
vn 0.000000 -0.779117 0.626879
vn 0.000000 -0.948693 0.316200
vn 0.000000 -0.779117 0.626879
vn 0.000000 -0.457673 0.889121
vn 0.000000 -0.457673 0.889121
vn 0.000000 -0.779117 0.626879
vn 0.000000 -0.457673 0.889121
vn 0.000000 -0.008556 0.999963
vn 0.000000 -0.008556 0.999963
vn 0.000000 -0.457673 0.889121
vn 0.000000 -0.047074 0.998891
vn 0.000000 -0.457673 0.889121
vn 0.000000 -0.457673 0.889121
vn 0.000000 -0.047074 0.998891
vn 0.000000 -0.457673 0.889121
vn 0.000000 -0.779117 0.626879
vn 0.000000 -0.779117 0.626879
vn 0.000000 -0.457673 0.889121
vn 0.000000 -0.779117 0.626879
vn 0.000000 -0.948679 0.316240
vn 0.000000 -0.948679 0.316240
vn 0.000000 -0.779117 0.626879
vn 0.000000 -0.948679 0.316240
vn 0.000000 -0.999364 0.035672
vn 0.000000 -0.999364 0.035672
vn 0.000000 -0.948679 0.316240
vn 0.000000 0.999364 0.035672
vn 0.000000 0.948679 0.316240
vn 0.000000 0.948679 0.316240
vn 0.000000 0.999364 0.035672
vn 0.000000 0.948679 0.316240
vn 0.000000 0.779117 0.626879
vn 0.000000 0.779117 0.626879
vn 0.000000 0.948679 0.316240
vn 0.000000 0.779117 0.626879
vn 0.000000 0.457673 0.889121
vn 0.000000 0.457673 0.889121
vn 0.000000 0.779117 0.626879
vn 0.000000 0.457673 0.889121
vn 0.000000 0.047074 0.998891
vn 0.000000 0.047074 0.998891
vn 0.000000 0.457673 0.889121
vn 0.000000 0.007280 0.999974
vn 0.000000 0.457673 0.889121
vn 0.000000 0.457673 0.889121
vn 0.000000 0.007280 0.999974
vn 0.000000 0.457673 0.889121
vn 0.000000 0.779103 0.626896
vn 0.000000 0.779103 0.626896
vn 0.000000 0.457673 0.889121
vn 0.000000 0.779103 0.626896
vn 0.000000 0.948693 0.316200
vn 0.000000 0.948693 0.316200
vn 0.000000 0.779103 0.626896
vn 0.000000 0.948693 0.316200
vn 0.000000 0.999364 0.035658
vn 0.000000 0.999364 0.035658
vn 0.000000 0.948693 0.316200
vn 0.000000 0.000000 1.000000
vn 0.000000 0.000000 1.000000
vn 0.000000 0.000000 1.000000
vn 0.000000 0.000000 1.000000
vn 0.000000 0.000000 1.000000
vn 0.000000 0.000000 1.000000
vn 0.000000 0.000000 1.000000
vn 0.000000 0.000000 1.000000
s off
g Wall:group Wall:pPlane11 Wall:polySurface1
usemtl lambert4SG
f 3/1/1 4/2/2 2/3/3 1/4/4
f 5/5/5 6/6/6 51/7/7 52/8/8
f 4/2/9 3/1/10 16/9/11 7/10/12
f 26/11/13 17/12/14 11/13/15 12/14/16
f 21/15/17 22/16/18 36/17/19 27/18/20
f 46/19/21 37/20/22 31/21/23 32/22/24
f 41/23/25 42/24/26 56/25/27 47/26/28
f 11/13/29 10/27/30 13/28/31 12/14/32
f 10/27/33 9/29/34 14/30/35 13/28/36
f 9/29/37 8/31/38 15/32/39 14/30/40
f 8/31/41 7/10/42 16/9/43 15/32/44
f 21/15/45 20/33/46 23/34/47 22/16/48
f 20/33/49 19/35/50 24/36/51 23/34/52
f 19/35/53 18/37/54 25/38/55 24/36/56
f 18/37/57 17/12/58 26/11/59 25/38/60
f 31/21/61 30/39/62 33/40/63 32/22/64
f 30/39/65 29/41/66 34/42/67 33/40/68
f 29/41/69 28/43/70 35/44/71 34/42/72
f 28/43/73 27/18/74 36/17/75 35/44/76
f 41/23/77 40/45/78 43/46/79 42/24/80
f 40/45/81 39/47/82 44/48/83 43/46/84
f 39/47/85 38/49/86 45/50/87 44/48/88
f 38/49/89 37/20/90 46/19/91 45/50/92
f 51/7/93 50/51/94 53/52/95 52/8/96
f 50/51/97 49/53/98 54/54/99 53/52/100
f 49/53/101 48/55/102 55/56/103 54/54/104
f 48/55/105 47/26/106 56/25/107 55/56/108
f 57/57/109 58/58/110 60/59/111 59/60/112
f 63/61/113 64/62/114 62/63/115 61/64/116
f 67/65/117 68/66/118 66/67/119 65/68/120
f 69/69/121 70/70/122 115/71/123 116/72/124
f 68/66/125 67/65/126 80/73/127 71/74/128
f 90/75/129 81/76/130 75/77/131 76/78/132
f 85/79/133 86/80/134 100/81/135 91/82/136
f 110/83/137 101/84/138 95/85/139 96/86/140
f 105/87/141 106/88/142 120/89/143 111/90/144
f 75/77/145 74/91/146 77/92/147 76/78/148
f 74/91/149 73/93/150 78/94/151 77/92/152
f 73/93/153 72/95/154 79/96/155 78/94/156
f 72/95/157 71/74/158 80/73/159 79/96/160
f 85/79/161 84/97/162 87/98/163 86/80/164
f 84/97/165 83/99/166 88/100/167 87/98/168
f 83/99/169 82/101/170 89/102/171 88/100/172
f 82/101/173 81/76/174 90/75/175 89/102/176
f 95/85/177 94/103/178 97/104/179 96/86/180
f 94/103/181 93/105/182 98/106/183 97/104/184
f 93/105/185 92/107/186 99/108/187 98/106/188
f 92/107/189 91/82/190 100/81/191 99/108/192
f 105/87/193 104/109/194 107/110/195 106/88/196
f 104/109/197 103/111/198 108/112/199 107/110/200
f 103/111/201 102/113/202 109/114/203 108/112/204
f 102/113/205 101/84/206 110/83/207 109/114/208
f 115/71/209 114/115/210 117/116/211 116/72/212
f 114/115/213 113/117/214 118/118/215 117/116/216
f 113/117/217 112/119/218 119/120/219 118/118/220
f 112/119/221 111/90/222 120/89/223 119/120/224
f 121/121/225 122/122/226 124/123/227 123/124/228
f 127/125/229 128/126/230 126/127/231 125/128/232
f 131/129/233 132/130/234 130/131/235 129/132/236
f 133/133/237 134/134/238 179/135/239 180/136/240
f 132/130/241 131/129/242 144/137/243 135/138/244
f 154/139/245 145/140/246 139/141/247 140/142/248
f 149/143/249 150/144/250 164/145/251 155/146/252
f 174/147/253 165/148/254 159/149/255 160/150/256
f 169/151/257 170/152/258 184/153/259 175/154/260
f 139/141/261 138/155/262 141/156/263 140/142/264
f 138/155/265 137/157/266 142/158/267 141/156/268
f 137/157/269 136/159/270 143/160/271 142/158/272
f 136/159/273 135/138/274 144/137/275 143/160/276
f 149/143/277 148/161/278 151/162/279 150/144/280
f 148/161/281 147/163/282 152/164/283 151/162/284
f 147/163/285 146/165/286 153/166/287 152/164/288
f 146/165/289 145/140/290 154/139/291 153/166/292
f 159/149/293 158/167/294 161/168/295 160/150/296
f 158/167/297 157/169/298 162/170/299 161/168/300
f 157/169/301 156/171/302 163/172/303 162/170/304
f 156/171/305 155/146/306 164/145/307 163/172/308
f 169/151/309 168/173/310 171/174/311 170/152/312
f 168/173/313 167/175/314 172/176/315 171/174/316
f 167/175/317 166/177/318 173/178/319 172/176/320
f 166/177/321 165/148/322 174/147/323 173/178/324
f 179/135/325 178/179/326 181/180/327 180/136/328
f 178/179/329 177/181/330 182/182/331 181/180/332
f 177/181/333 176/183/334 183/184/335 182/182/336
f 176/183/337 175/154/338 184/153/339 183/184/340
f 185/185/341 186/186/342 188/187/343 187/188/344
f 191/189/345 192/190/346 190/191/347 189/192/348
