# This file uses centimeters as units for non-parametric coordinates.

mtllib Floor.mtl
g default
v 0.038415 0.000000 15.000000
v 14.962609 0.000000 15.000000
v 0.000000 0.000000 0.037391
v 14.962609 0.000000 0.000000
vt 0.004538 0.001992
vt 0.995520 0.001992
vt 0.995520 0.998008
vt 0.001987 0.995525
vn 0.000000 1.000000 0.000000
vn 0.000000 1.000000 0.000000
vn 0.000000 1.000000 0.000000
vn 0.000000 1.000000 0.000000
s off
g Floor:pPlane13 group1
usemtl Floor:initialShadingGroup
f 1/1/1 2/2/2 4/3/3 3/4/4
