# This file uses centimeters as units for non-parametric coordinates.

mtllib highdetailbeam.mtl
g default
v -8.870410 -0.512993 0.521861
v -8.793356 -0.544910 0.521861
v -8.793356 -0.512993 0.598915
v -8.793356 -0.435939 0.630832
v -8.870410 -0.435939 0.598915
v -8.902327 -0.435939 0.521861
v 8.870410 -0.512993 0.521861
v 8.902327 -0.435939 0.521861
v 8.870410 -0.435939 0.598915
v 8.793356 -0.435939 0.630832
v 8.793356 -0.512993 0.598915
v 8.793356 -0.544910 0.521861
v 8.870410 0.512992 0.521861
v 8.793356 0.544909 0.521861
v 8.793356 0.512992 0.598915
v 8.793356 0.435938 0.630832
v 8.870410 0.435938 0.598915
v 8.902327 0.435938 0.521861
v -8.870410 0.512992 0.521861
v -8.902327 0.435938 0.521861
v -8.870410 0.435938 0.598915
v -8.793356 0.435938 0.630832
v -8.793356 0.512992 0.598915
v -8.793356 0.544909 0.521861
v 8.870410 0.435938 -0.598916
v 8.793356 0.435938 -0.630833
v 8.793356 0.512992 -0.598916
v 8.793356 0.544909 -0.521862
v 8.870410 0.512992 -0.521862
v 8.902327 0.435938 -0.521862
v -8.870410 0.435938 -0.598916
v -8.902327 0.435938 -0.521862
v -8.870410 0.512992 -0.521862
v -8.793356 0.544909 -0.521862
v -8.793356 0.512992 -0.598916
v -8.793356 0.435938 -0.630833
v 8.870410 -0.512993 -0.521862
v 8.793356 -0.544910 -0.521862
v 8.793356 -0.512993 -0.598916
v 8.793356 -0.435939 -0.630833
v 8.870410 -0.435939 -0.598916
v 8.902327 -0.435939 -0.521862
v -8.870410 -0.512993 -0.521862
v -8.902327 -0.435939 -0.521862
v -8.870410 -0.435939 -0.598916
v -8.793356 -0.435939 -0.630833
v -8.793356 -0.512993 -0.598916
v -8.793356 -0.544910 -0.521862
v -8.856248 -0.498831 0.584753
v 8.856248 -0.498831 0.584753
v 8.856248 0.498830 0.584753
v -8.856248 0.498830 0.584753
v 8.856248 0.498830 -0.584754
v -8.856248 0.498830 -0.584754
v 8.856248 -0.498831 -0.584754
v -8.856248 -0.498831 -0.584754
v 3.468667 -0.512993 0.598915
v 3.468667 -0.544910 0.521861
v 3.468667 -0.544910 -0.521862
v 3.468667 -0.512993 -0.598916
v 3.468667 -0.435939 -0.630833
v 3.468667 0.435938 -0.630833
v 3.468667 0.512992 -0.598916
v 3.468667 0.544909 -0.521862
v 3.468667 0.544909 0.521861
v 4.413908 0.512992 0.598915
v 3.468667 0.435938 0.630832
v 3.468667 -0.435939 0.630832
v -3.356737 -0.512993 0.598915
v -3.356737 -0.544910 0.521861
v -3.356737 -0.544910 -0.521862
v -3.356737 -0.512993 -0.598916
v -3.356737 -0.435939 -0.630833
v -3.356737 0.435938 -0.630833
v -3.356737 0.512992 -0.598916
v -3.356737 0.544909 -0.521862
v -3.356737 0.544909 0.521861
v -4.438573 0.512992 0.598915
v -3.356737 0.329378 0.630832
v -3.356737 -0.435939 0.630832
v -1.294891 0.406432 0.598915
v -2.357044 0.513228 0.598347
v -2.358302 0.512992 0.598915
v -2.358302 0.512992 0.598915
v -3.350381 0.462750 0.453363
v -3.355520 0.406846 0.448159
v -3.350600 0.369005 0.543444
v 2.563370 0.435938 0.630832
v 1.203746 0.512992 0.598915
v 2.549051 0.544909 0.521861
v 3.468667 0.512992 0.598915
v 2.652680 0.498510 0.477611
v 2.412383 0.363853 0.420870
v 2.662438 0.392920 0.589839
vt 5.209442 2.205895
vt 3.323507 -1.149426
vt 5.206460 2.192976
vt 4.263697 2.193185
vt 5.223014 2.193186
vt 4.280392 2.193004
vt 3.370805 -1.196179
vt 4.277428 2.205894
vt 3.377219 -1.143863
vt 2.408124 -0.404484
vt 5.209442 -1.205894
vt 2.461202 -0.409982
vt 4.277428 -1.205895
vt 2.454863 -0.358284
vt 4.280392 -1.193005
vt 5.223014 -1.193185
vt 4.263697 -1.193186
vt 5.206460 -1.192975
vt 4.505825 -1.205895
vt 3.118998 -0.404484
vt 4.508807 -1.192976
vt 4.472531 -1.193186
vt 4.492253 -1.193186
vt 4.455836 -1.193005
vt 3.072259 -0.358284
vt 4.458800 -1.205895
vt 3.065920 -0.409982
vt 4.042881 -1.149426
vt 4.505825 2.205894
vt 3.989169 -1.143863
vt 4.458800 2.205894
vt 3.995583 -1.196179
vt 4.455836 2.193004
vt 4.492253 2.193185
vt 4.472531 2.193185
vt 4.508807 2.192975
vt 4.780896 -1.205894
vt 3.072259 -1.181250
vt 4.783860 -1.193004
vt 4.734017 -1.193186
vt 4.767165 -1.193185
vt 4.717463 -1.192976
vt 3.118998 -1.135050
vt 4.720445 -1.205895
vt 3.065920 -1.129552
vt 3.995583 -0.363371
vt 4.780896 2.205895
vt 3.989169 -0.415687
vt 4.720445 2.205894
vt 4.042881 -0.410124
vt 4.717463 2.192975
vt 4.767165 2.193186
vt 4.734017 2.193185
vt 4.783860 2.193005
vt 4.994822 -1.205894
vt 2.408124 -1.135050
vt 4.997804 -1.192975
vt 4.975999 -1.193185
vt 4.981250 -1.193185
vt 4.959304 -1.193004
vt 2.454863 -1.181250
vt 4.962268 -1.205894
vt 2.461202 -1.129552
vt 3.323507 -0.410124
vt 4.994822 2.205895
vt 3.377219 -0.415687
vt 4.962268 2.205895
vt 3.370805 -0.363371
vt 4.959304 2.193005
vt 4.981250 2.193186
vt 4.975999 2.193186
vt 4.997804 2.192976
vt 5.223014 2.205895
vt 4.263697 2.205894
vt 3.323507 -1.196179
vt 2.408124 -0.358284
vt 4.263697 -1.205895
vt 5.223014 -1.205894
vt 4.492253 -1.205895
vt 4.472531 -1.205895
vt 3.118998 -0.358284
vt 4.042881 -1.196179
vt 4.472531 2.205894
vt 4.492253 2.205894
vt 4.767165 -1.205894
vt 4.734017 -1.205895
vt 3.118998 -1.181250
vt 4.042881 -0.363371
vt 4.734017 2.205894
vt 4.767165 2.205895
vt 4.981250 -1.205894
vt 4.975999 -1.205894
vt 2.408124 -1.181250
vt 3.323507 -0.363371
vt 4.975999 2.205895
vt 4.981250 2.205895
vt 4.263697 -0.004878
vt 5.223014 -0.004877
vt 5.206460 -0.004814
vt 4.997804 -0.004814
vt 4.975999 -0.004877
vt 4.981250 -0.004877
vt 4.959304 -0.004823
vt 4.783860 -0.004823
vt 4.734017 -0.004878
vt 4.767165 -0.004877
vt 4.717463 -0.004815
vt 4.508807 -0.004815
vt 4.472531 -0.004878
vt 4.492253 -0.004878
vt 4.455836 -0.004824
vt 4.280392 -0.004824
vt 4.263697 1.146349
vt 5.223014 1.146350
vt 5.206460 1.146270
vt 4.997804 1.146270
vt 4.975999 1.146350
vt 4.981250 1.146350
vt 4.959304 1.146281
vt 4.783860 1.146281
vt 4.734017 1.146349
vt 4.767165 1.146350
vt 4.717463 1.146269
vt 4.508807 1.146269
vt 4.472531 1.146349
vt 4.492253 1.146349
vt 4.455836 1.146280
vt 4.280392 1.146280
vt 4.472531 1.094290
vt 4.492253 1.094290
vt 4.492375 1.094049
vt 4.492253 1.094290
vt 4.492375 1.094049
vt 4.508807 1.146269
vt 4.492253 1.146349
vt 4.455836 1.146280
vt 4.472531 1.094290
vt 4.472531 1.146349
vt 4.455836 0.169475
vt 4.472531 0.279933
vt 4.492253 0.279933
vt 4.508807 0.172237
vt 4.492253 -0.004878
vt 4.508807 0.172237
vt 4.492253 0.279933
vt 4.455836 0.169475
vt 4.472531 -0.004878
vt 4.472531 0.279933
vn -0.005650 -0.999583 0.028335
vn -0.380624 -0.924557 0.017898
vn -0.380624 -0.924557 -0.017898
vn -0.005650 -0.999583 -0.028335
vn -0.924559 -0.380619 0.017898
vn -0.999077 -0.032852 0.027693
vn -0.999077 -0.032852 -0.027693
vn -0.924559 -0.380619 -0.017898
vn -0.000000 -0.034560 0.999403
vn 0.000000 -0.382683 0.923880
vn 0.003662 -0.382272 0.924043
vn 0.005741 -0.033459 0.999424
vn 0.000000 -0.923880 0.382683
vn 0.000000 -0.999595 0.028466
vn 0.005767 -0.999582 0.028332
vn 0.003662 -0.924043 0.382272
vn -0.924650 -0.021207 0.380228
vn -0.924650 0.021207 0.380228
vn -0.999077 0.032852 0.027693
vn -0.380230 -0.021207 0.924649
vn -0.005954 -0.035422 0.999355
vn -0.005450 0.031397 0.999492
vn -0.380230 0.021207 0.924649
vn 0.999077 -0.032852 0.027693
vn 0.924559 -0.380619 0.017898
vn 0.924559 -0.380619 -0.017898
vn 0.999077 -0.032852 -0.027693
vn 0.380624 -0.924557 0.017898
vn 0.005767 -0.999582 -0.028332
vn 0.380624 -0.924557 -0.017898
vn 0.380230 -0.021207 0.924649
vn 0.380230 0.021207 0.924649
vn 0.005783 0.030739 0.999511
vn 0.924650 -0.021207 0.380228
vn 0.999077 0.032852 0.027693
vn 0.924650 0.021207 0.380228
vn 0.005803 0.999645 0.025999
vn 0.380624 0.924557 0.017898
vn 0.380624 0.924557 -0.017898
vn 0.005767 0.999582 -0.028332
vn 0.924559 0.380619 0.017898
vn 0.999077 0.032852 -0.027693
vn 0.924559 0.380619 -0.017898
vn 0.004014 0.382232 0.924058
vn -0.000082 0.383510 0.923537
vn -0.000000 0.003546 0.999994
vn 0.004014 0.924057 0.382233
vn 0.000000 0.999996 0.002913
vn -0.000090 0.923499 0.383600
vn -0.924559 0.380619 0.017898
vn -0.924559 0.380619 -0.017898
vn -0.999077 0.032852 -0.027693
vn -0.380624 0.924557 0.017898
vn -0.005689 0.999653 0.025717
vn -0.005650 0.999583 -0.028335
vn -0.380624 0.924557 -0.017898
vn 0.005741 0.033459 -0.999424
vn 0.380230 0.021207 -0.924649
vn 0.380230 -0.021207 -0.924649
vn 0.005741 -0.033459 -0.999424
vn 0.924650 0.021207 -0.380228
vn 0.924650 -0.021207 -0.380228
vn 0.003662 0.924043 -0.382272
vn 0.000000 0.923880 -0.382683
vn 0.000000 0.999595 -0.028466
vn 0.003662 0.382272 -0.924043
vn 0.000000 0.033616 -0.999435
vn 0.000000 0.382683 -0.923880
vn -0.924650 0.021207 -0.380228
vn -0.924650 -0.021207 -0.380228
vn -0.380230 0.021207 -0.924649
vn -0.005625 0.033463 -0.999424
vn -0.005625 -0.033463 -0.999424
vn -0.380230 -0.021207 -0.924649
vn 0.003662 -0.382272 -0.924043
vn 0.000000 -0.382683 -0.923880
vn 0.000000 -0.033616 -0.999435
vn 0.003662 -0.924043 -0.382272
vn 0.000000 -0.999595 -0.028466
vn 0.000000 -0.923880 -0.382683
vn -0.887918 -0.325271 0.325270
vn -0.003587 -0.924039 0.382280
vn -0.325271 -0.887918 0.325271
vn -0.003587 -0.382280 0.924039
vn -0.325272 -0.325266 0.887919
vn 0.325270 -0.887918 0.325271
vn 0.887919 -0.325268 0.325271
vn 0.325272 -0.325266 0.887919
vn 0.887918 0.325271 0.325270
vn 0.325271 0.887918 0.325271
vn 0.325272 0.325266 0.887919
vn -0.003979 0.924056 0.382236
vn -0.325270 0.887918 0.325271
vn -0.887919 0.325268 0.325271
vn 0.000090 0.249158 0.968463
vn -0.325272 0.325266 0.887919
vn 0.887919 0.325268 -0.325271
vn 0.325272 0.325266 -0.887919
vn 0.325270 0.887918 -0.325271
vn -0.003587 0.382280 -0.924039
vn -0.325272 0.325266 -0.887919
vn -0.887918 0.325271 -0.325270
vn -0.003587 0.924039 -0.382280
vn -0.325271 0.887918 -0.325271
vn 0.887918 -0.325271 -0.325270
vn 0.325271 -0.887918 -0.325271
vn 0.325272 -0.325266 -0.887919
vn -0.003587 -0.924039 -0.382280
vn -0.325270 -0.887918 -0.325271
vn -0.887919 -0.325268 -0.325271
vn -0.003587 -0.382280 -0.924039
vn -0.325272 -0.325266 -0.887919
vn 0.000000 -0.923880 0.382683
vn 0.000000 -0.999595 0.028466
vn 0.000000 -0.999595 -0.028466
vn 0.000000 -0.923880 -0.382683
vn 0.000000 -0.382683 -0.923880
vn 0.000000 -0.033616 -0.999435
vn 0.000000 0.033616 -0.999435
vn 0.000000 0.382683 -0.923880
vn 0.000000 0.923880 -0.382683
vn 0.000000 0.999595 -0.028466
vn -0.000000 0.999998 0.001992
vn 0.001139 0.999848 0.017393
vn -0.000000 -0.000000 0.000000
vn -0.000000 -0.000000 0.000000
vn -0.140793 -0.078932 0.986888
vn -0.140793 -0.078932 0.986888
vn -0.153630 0.915611 0.371556
vn -0.153630 0.915611 0.371556
vn -0.153630 0.915611 0.371556
vn 0.000011 0.001672 0.999999
vn -0.000000 -0.035457 0.999371
vn 0.001755 0.024753 0.999692
vn 0.000000 -0.382683 0.923880
vn 0.000000 0.923880 0.382683
vn 0.002704 0.248427 0.968647
vn -0.072334 0.301802 0.950623
vn -0.041338 -0.213724 0.976019
vn 0.055673 -0.507504 0.859849
vn 0.084220 0.840456 0.535295
vn 0.084220 0.840456 0.535295
vn 0.000000 0.000000 0.000000
vn 0.000000 0.000000 0.000000
vn -0.079536 -0.637037 0.766719
vn -0.079536 -0.637037 0.766719
vn -0.079536 -0.637037 0.766719
vn -0.079536 -0.637037 0.766719
vn 0.097288 -0.455867 0.884715
vn 0.178338 0.468156 0.865463
vn 0.166085 0.679031 0.715076
vn -0.029287 0.864231 0.502242
vn -0.027597 0.035168 0.999000
vn -0.022259 -0.222130 0.974763
vn 0.140111 0.898015 0.417058
vn 0.140340 0.911212 0.387296
vn 0.073499 -0.635269 0.768785
vn -0.008407 0.451928 0.892015
vn -0.010734 0.424019 0.905590
vn -0.043155 0.997219 -0.060763
vn -0.073173 0.933987 0.349734
vn 0.059180 0.936809 -0.344800
vn 0.001071 0.718787 0.695229
vn -0.000061 0.730365 0.683058
vn -0.000061 0.730364 0.683058
vn -0.027684 0.911117 0.411216
s 1
g Supportbeam1:group3 Supportbeam1:pCube14 Supportbeam1:polySurface2 Supportbeam1:polySurface1
usemtl Supportbeam1:lambert3SG
f 2/3/1 1/1/2 43/65/3 48/72/4
s 2
f 1/2/5 6/9/6 44/66/7 43/64/8
s 3
f 68/112/9 57/97/10 11/17/11 10/15/12
s 1
f 57/98/13 58/99/14 12/18/15 11/16/16
s 2
f 6/9/6 5/7/17 21/32/18 20/30/19
s 3
f 5/8/20 4/6/21 22/33/22 21/31/23
s 6
f 8/12/24 7/10/25 37/56/26 42/63/27
s 1
f 7/11/28 12/18/15 38/57/29 37/55/30
s 3
f 10/15/12 9/13/31 17/26/32 16/24/33
s 6
f 9/14/34 8/12/24 18/27/35 17/25/36
s 7
f 14/21/37 13/19/38 29/44/39 28/42/40
s 6
f 13/20/41 18/27/35 30/45/42 29/43/43
s 3
f 16/24/33 15/22/44 66/109/45 67/111/46
s 7
f 15/23/47 14/21/37 65/108/48 66/110/49
s 2
f 20/30/19 19/28/50 33/50/51 32/48/52
s 7
f 19/29/53 24/36/54 34/51/55 33/49/56
s 9
f 26/39/57 25/37/58 41/62/59 40/60/60
s 6
f 25/38/61 30/45/42 42/63/27 41/61/62
s 7
f 28/42/40 27/40/63 63/105/64 64/107/65
s 9
f 27/41/66 26/39/57 62/104/67 63/106/68
s 2
f 32/48/52 31/46/69 45/68/70 44/66/7
s 9
f 31/47/71 36/54/72 46/69/73 45/67/74
f 40/60/60 39/58/75 60/101/76 61/103/77
s 1
f 39/59/78 38/57/29 59/100/79 60/102/80
s 3
f 67/111/46 68/112/9 10/15/12 16/24/33
s 7
f 64/107/65 65/108/48 14/21/37 28/42/40
s 9
f 61/103/77 62/104/67 26/39/57 40/60/60
s 1
f 58/99/14 59/100/79 38/57/29 12/18/15
s 6
f 8/12/24 42/63/27 30/45/42 18/27/35
s 2
f 44/66/7 6/9/6 20/30/19 32/48/52
f 5/7/17 6/9/6 1/2/5 49/75/81
s 1
f 1/1/2 2/3/1 3/5/82 49/73/83
s 3
f 3/4/84 4/6/21 5/8/20 49/74/85
s 1
f 11/16/16 12/18/15 7/11/28 50/78/86
s 6
f 7/10/25 8/12/24 9/14/34 50/76/87
s 3
f 9/13/31 10/15/12 11/17/11 50/77/88
s 6
f 17/25/36 18/27/35 13/20/41 51/81/89
s 7
f 13/19/38 14/21/37 15/23/47 51/79/90
s 3
f 15/22/44 16/24/33 17/26/32 51/80/91
s 7
f 23/34/92 24/36/54 19/29/53 52/84/93
s 2
f 19/28/50 20/30/19 21/32/18 52/82/94
s 3
f 21/31/23 22/33/22 23/35/95 52/83/96
s 6
f 29/43/43 30/45/42 25/38/61 53/87/97
s 9
f 25/37/58 26/39/57 27/41/66 53/85/98
s 7
f 27/40/63 28/42/40 29/44/39 53/86/99
s 9
f 35/52/100 36/54/72 31/47/71 54/90/101
s 2
f 31/46/69 32/48/52 33/50/51 54/88/102
s 7
f 33/49/56 34/51/55 35/53/103 54/89/104
s 6
f 41/61/62 42/63/27 37/56/26 55/93/105
s 1
f 37/55/30 38/57/29 39/59/78 55/91/106
s 9
f 39/58/75 40/60/60 41/62/59 55/92/107
s 1
f 47/70/108 48/72/4 43/65/3 56/96/109
s 2
f 43/64/8 44/66/7 45/68/70 56/94/110
s 9
f 45/67/74 46/69/73 47/71/111 56/95/112
s 1
f 69/114/113 70/115/114 58/99/14 57/98/13
f 70/115/114 71/116/115 59/100/79 58/99/14
f 60/102/80 59/100/79 71/116/115 72/118/116
s 9
f 61/103/77 60/101/76 72/117/117 73/119/118
f 73/119/118 74/120/119 62/104/67 61/103/77
f 63/106/68 62/104/67 74/120/119 75/122/120
s 7
f 64/107/65 63/105/64 75/121/121 76/123/122
f 76/123/122 77/124/123 90/142/124 65/108/48 64/107/65
s off
f 83/132/125 84/133/126 85/134/127 86/135/128
f 87/136/129 83/137/130 86/138/131
s 3
f 79/127/132 80/128/133 68/112/9 67/111/46 88/139/134
f 80/128/133 69/113/135 57/97/10 68/112/9
s 1
f 3/5/82 2/3/1 70/115/114 69/114/113
f 48/72/4 71/116/115 70/115/114 2/3/1
f 72/118/116 71/116/115 48/72/4 47/70/108
s 9
f 73/119/118 72/117/117 47/71/111 46/69/73
f 36/54/72 74/120/119 73/119/118 46/69/73
f 75/122/120 74/120/119 36/54/72 35/52/100
s 7
f 76/123/122 75/121/121 35/53/103 34/51/55
f 24/36/54 77/124/123 76/123/122 34/51/55
f 78/126/136 77/124/123 24/36/54 23/34/92
s 3
f 79/127/132 78/125/137 23/35/95 22/33/22
f 4/6/21 80/128/133 79/127/132 22/33/22
f 4/6/21 3/4/84 69/113/135 80/128/133
f 67/111/46 66/109/45 88/139/134
s 7
f 91/143/138 92/144/139 93/145/140
s off
f 81/130/141 82/131/142 84/133/143 83/132/144
f 82/131/145 77/124/146 85/134/147 84/133/148
s 12
f 85/134/149 78/126/150 86/135/151
s 13
f 87/136/152 81/129/153 83/137/154
s 12
f 78/125/150 79/127/155 87/136/156
f 78/125/150 87/136/156 86/138/151
f 77/124/157 78/126/150 85/134/149
s 3
f 88/139/134 89/140/158 81/129/159 79/127/132
f 94/146/160 91/147/161 93/148/162
s 7
f 66/110/49 65/108/48 90/142/124
f 89/141/163 90/142/124 77/124/123 82/131/164 81/130/165
f 66/110/49 90/142/124 92/144/139 91/143/138
f 90/142/124 89/141/163 93/145/140 92/144/139
s 3
f 88/139/134 66/109/45 91/147/161 94/146/160
f 89/140/158 88/139/134 94/146/160 93/148/162
s 13
f 79/127/166 81/129/153 87/136/152
