# This file uses centimeters as units for non-parametric coordinates.

mtllib Plantpot.mtl
g default
v 0.455609 0.000000 -0.349272
v 0.349683 0.291028 -0.349272
v 0.081470 0.445881 -0.349272
v -0.223531 0.392101 -0.349272
v -0.422606 0.154853 -0.349272
v -0.422606 -0.154853 -0.349272
v -0.223531 -0.392102 -0.349272
v 0.081470 -0.445881 -0.349272
v 0.349683 -0.291028 -0.349272
v 0.908369 0.000000 -0.500000
v 0.696517 0.582057 -0.500000
v 0.160091 0.891763 -0.500000
v -0.449911 0.784203 -0.500000
v -0.848061 0.309706 -0.500000
v -0.848061 -0.309706 -0.500000
v -0.449911 -0.784203 -0.500000
v 0.160091 -0.891763 -0.500000
v 0.696517 -0.582057 -0.500000
v 0.042314 0.000000 -0.360040
v 0.034226 0.022156 -0.360007
v 0.013796 0.033886 -0.359923
v -0.009349 0.029740 -0.359827
v -0.024407 0.011730 -0.359765
v -0.024407 -0.011730 -0.359765
v -0.009349 -0.029740 -0.359827
v 0.013796 -0.033886 -0.359923
v 0.034226 -0.022156 -0.360007
v 0.566168 0.000000 -0.126388
v 0.433229 -0.365248 -0.126388
v 0.096614 -0.559593 -0.126388
v -0.286170 -0.492098 -0.126388
v -0.536015 -0.194345 -0.126388
v -0.536015 0.194345 -0.126388
v -0.286170 0.492098 -0.126388
v 0.096614 0.559593 -0.126388
v 0.433229 0.365248 -0.126388
v 0.908369 0.000000 -0.328889
v 0.696517 -0.582057 -0.328889
v 0.160091 -0.891763 -0.328889
v -0.449911 -0.784203 -0.328889
v -0.848061 -0.309706 -0.328889
v -0.848061 0.309706 -0.328889
v -0.449911 0.784203 -0.328889
v 0.160091 0.891763 -0.328889
v 0.696517 0.582057 -0.328889
v 0.980405 0.000000 1.411977
v 1.011267 0.000000 1.421952
v 0.962716 0.000000 1.386204
v 0.747028 0.641186 1.411996
v 0.770634 0.661076 1.421952
v 0.733551 0.629666 1.386259
v 0.156104 0.982335 1.412039
v 0.161371 1.012755 1.421952
v 0.153252 0.964736 1.386381
v -0.515841 0.863831 1.412086
v -0.531349 0.890524 1.421952
v -0.506685 0.848406 1.386513
v -0.954403 0.341147 1.412115
v -0.983419 0.351673 1.421952
v -0.937453 0.335069 1.386592
v -0.954403 -0.341147 1.412115
v -0.983419 -0.351673 1.421952
v -0.937453 -0.335069 1.386592
v -0.515841 -0.863831 1.412086
v -0.531349 -0.890524 1.421952
v -0.506685 -0.848406 1.386513
v 0.156105 -0.982335 1.412039
v 0.161372 -1.012755 1.421952
v 0.153253 -0.964736 1.386381
v 0.747028 -0.641186 1.411996
v 0.770635 -0.661076 1.421952
v 0.733551 -0.629665 1.386259
v 1.141627 0.000000 1.408777
v 1.110818 0.000000 1.421952
v 1.151438 0.000000 1.378335
v 0.873394 0.736928 1.408769
v 0.849767 0.717152 1.421952
v 0.880950 0.743155 1.378319
v 0.194232 1.129008 1.408748
v 0.188825 1.098675 1.421952
v 0.196053 1.138574 1.378275
v -0.578038 0.992803 1.408723
v -0.562677 0.966095 1.421952
v -0.582773 1.001238 1.378222
v -1.082076 0.392081 1.408706
v -1.053133 0.381525 1.421952
v -1.091110 0.395418 1.378186
v -1.082076 -0.392081 1.408706
v -1.053133 -0.381525 1.421952
v -1.091110 -0.395418 1.378186
v -0.578038 -0.992803 1.408723
v -0.562677 -0.966095 1.421952
v -0.582773 -1.001238 1.378222
v 0.194232 -1.129009 1.408748
v 0.188825 -1.098676 1.421952
v 0.196053 -1.138574 1.378275
v 0.873394 -0.736928 1.408769
v 0.849768 -0.717152 1.421952
v 0.880950 -0.743155 1.378319
vt 0.000000 1.000000
vt 0.111111 1.000000
vt 0.222222 1.000000
vt 0.333333 1.000000
vt 0.444444 1.000000
vt 0.555556 1.000000
vt 0.666667 1.000000
vt 0.777778 1.000000
vt 0.888889 1.000000
vt 1.000000 1.000000
vt 0.000000 0.250000
vt 0.111111 0.250000
vt 0.222222 0.250000
vt 0.333333 0.250000
vt 0.444444 0.250000
vt 0.555556 0.250000
vt 0.666667 0.250000
vt 0.777778 0.250000
vt 0.888889 0.250000
vt 1.000000 0.250000
vt 0.000000 0.000000
vt 0.111111 0.000000
vt 0.222222 0.000000
vt 0.333333 0.000000
vt 0.444444 0.000000
vt 0.555556 0.000000
vt 0.666667 0.000000
vt 0.777778 0.000000
vt 0.888889 0.000000
vt 1.000000 0.000000
vt 0.000000 0.000000
vt 1.000000 0.000000
vt 1.000000 1.000000
vt 0.000000 1.000000
vt 0.000000 0.000000
vt 1.000000 0.000000
vt 1.000000 1.000000
vt 0.000000 1.000000
vt 0.000000 0.000000
vt 1.000000 0.000000
vt 1.000000 1.000000
vt 0.000000 1.000000
vt 0.000000 0.000000
vt 1.000000 0.000000
vt 1.000000 1.000000
vt 0.000000 1.000000
vt 0.000000 0.000000
vt 1.000000 0.000000
vt 1.000000 1.000000
vt 0.000000 1.000000
vt 0.000000 0.000000
vt 1.000000 0.000000
vt 1.000000 1.000000
vt 0.000000 1.000000
vt 0.000000 0.000000
vt 1.000000 0.000000
vt 1.000000 1.000000
vt 0.000000 1.000000
vt 0.000000 0.000000
vt 1.000000 0.000000
vt 1.000000 1.000000
vt 0.000000 1.000000
vt 0.000000 0.000000
vt 1.000000 0.000000
vt 1.000000 1.000000
vt 0.000000 1.000000
vt 1.000000 0.951402
vt 0.000000 0.272258
vt 0.000000 0.951402
vt 0.111111 0.951402
vt 0.222222 0.951402
vt 0.333333 0.951402
vt 0.444444 0.951402
vt 0.555556 0.951402
vt 0.666667 0.951402
vt 0.777778 0.951402
vt 0.888889 0.951402
vt 1.000000 0.272258
vt 0.888889 0.272258
vt 0.777778 0.272258
vt 0.666667 0.272258
vt 0.555556 0.272258
vt 0.444444 0.272258
vt 0.333333 0.272258
vt 0.222222 0.272258
vt 0.111111 0.272258
vt 0.000000 0.750000
vt 1.000000 0.750000
vt 1.000000 0.701003
vt -0.000000 0.701003
vt -0.000000 0.753947
vt 1.000000 0.753947
vt 0.112570 0.637407
vt 0.112620 0.627772
vt 0.112508 0.646783
vt 0.224455 0.615581
vt 0.224531 0.609671
vt 0.224360 0.621566
vt 0.335294 0.606808
vt 0.335361 0.601417
vt 0.335211 0.612303
vt 0.445218 0.603250
vt 0.445245 0.597952
vt 0.445186 0.608659
vt 0.554782 0.603247
vt 0.554755 0.597949
vt 0.554814 0.608657
vt 0.664705 0.606803
vt 0.664639 0.601412
vt 0.664789 0.612298
vt 0.775545 0.615574
vt 0.775469 0.609664
vt 0.775640 0.621559
vt 0.887430 0.637399
vt 0.887380 0.627765
vt 0.887492 0.646775
vt 1.000000 0.500000
vt 0.000000 0.500000
vt -0.000000 0.550618
vt 1.000000 0.550618
vt 1.000000 0.495853
vt -0.000000 0.495853
vt 0.111391 0.592098
vt 0.111396 0.600776
vt 0.111381 0.583302
vt 0.222651 0.589092
vt 0.222658 0.594559
vt 0.222635 0.583716
vt 0.333710 0.583739
vt 0.333716 0.588792
vt 0.333696 0.578785
vt 0.444593 0.581242
vt 0.444595 0.586244
vt 0.444587 0.576335
vt 0.555407 0.581240
vt 0.555404 0.586242
vt 0.555412 0.576333
vt 0.666290 0.583734
vt 0.666284 0.588786
vt 0.666304 0.578780
vt 0.777349 0.589086
vt 0.777342 0.594553
vt 0.777365 0.583710
vt 0.888609 0.592089
vt 0.888604 0.600767
vt 0.888619 0.583293
vn 0.932632 0.339450 -0.122353
vn 0.932634 0.339451 -0.122336
vn 0.939693 0.342020 0.000000
vn 0.939693 0.342020 0.000000
vn 0.496134 0.859329 -0.124119
vn 0.496136 0.859334 -0.124074
vn 0.500000 0.866025 0.000000
vn 0.500000 0.866025 0.000000
vn -0.172246 0.976858 -0.126805
vn -0.172248 0.976865 -0.126753
vn -0.173648 0.984808 0.000000
vn -0.173648 0.984808 0.000000
vn -0.759629 0.637404 -0.129153
vn -0.759632 0.637407 -0.129119
vn -0.766044 0.642788 0.000000
vn -0.766044 0.642788 0.000000
vn -0.991505 -0.000000 -0.130066
vn -0.991505 -0.000000 -0.130066
vn -1.000000 0.000000 0.000000
vn -1.000000 0.000000 0.000000
vn -0.759632 -0.637407 -0.129119
vn -0.759629 -0.637404 -0.129153
vn -0.766044 -0.642788 0.000000
vn -0.766044 -0.642788 0.000000
vn -0.172248 -0.976865 -0.126753
vn -0.172246 -0.976858 -0.126806
vn -0.173648 -0.984808 0.000000
vn -0.173648 -0.984808 0.000000
vn 0.496137 -0.859334 -0.124075
vn 0.496134 -0.859329 -0.124119
vn 0.500000 -0.866025 0.000000
vn 0.500000 -0.866025 0.000000
vn 0.932635 -0.339451 -0.122336
vn 0.932633 -0.339450 -0.122353
vn 0.939693 -0.342020 0.000000
vn 0.939693 -0.342020 0.000000
vn -0.241967 -0.203034 -0.948804
vn -0.315865 -0.000000 -0.948804
vn -0.315865 -0.000000 -0.948804
vn -0.241967 -0.203034 -0.948804
vn -0.054849 -0.311066 -0.948804
vn -0.054849 -0.311066 -0.948804
vn 0.157932 -0.273547 -0.948804
vn 0.157932 -0.273547 -0.948804
vn 0.296816 -0.108032 -0.948804
vn 0.296816 -0.108032 -0.948804
vn 0.296816 0.108032 -0.948804
vn 0.296816 0.108032 -0.948804
vn 0.157932 0.273547 -0.948804
vn 0.157932 0.273547 -0.948804
vn -0.054849 0.311066 -0.948804
vn -0.054849 0.311066 -0.948804
vn -0.241967 0.203034 -0.948804
vn -0.241967 0.203034 -0.948804
vn -0.025968 -0.000000 0.999663
vn -0.019656 -0.016757 0.999666
vn -0.019716 -0.016689 0.999666
vn -0.025968 -0.000000 0.999663
vn -0.004123 -0.025149 0.999675
vn -0.004256 -0.025130 0.999675
vn 0.012783 -0.021604 0.999685
vn 0.012685 -0.021664 0.999685
vn 0.023395 -0.008403 0.999691
vn 0.023381 -0.008445 0.999691
vn 0.023395 0.008403 0.999691
vn 0.023381 0.008445 0.999691
vn 0.012783 0.021604 0.999685
vn 0.012685 0.021664 0.999685
vn -0.004123 0.025149 0.999675
vn -0.004256 0.025130 0.999675
vn -0.019656 0.016757 0.999666
vn -0.019716 0.016689 0.999666
vn -0.851711 0.309997 0.422481
vn -0.851711 0.309997 0.422481
vn -0.908784 0.330770 0.254369
vn -0.908738 0.330753 0.254555
vn -0.451498 0.782018 0.429648
vn -0.451498 0.782018 0.429648
vn -0.483008 0.836594 0.258483
vn -0.482943 0.836483 0.258963
vn 0.155895 0.884127 0.440472
vn 0.155895 0.884127 0.440472
vn 0.167443 0.949615 0.264941
vn 0.167416 0.949463 0.265502
vn 0.684163 0.574082 0.449835
vn 0.684163 0.574082 0.449834
vn 0.737439 0.618785 0.270719
vn 0.737358 0.618717 0.271093
vn 0.891261 0.000000 0.453492
vn 0.891261 0.000000 0.453492
vn 0.961974 0.000000 0.273143
vn 0.961974 0.000000 0.273143
vn 0.684163 -0.574082 0.449834
vn 0.684163 -0.574082 0.449834
vn 0.737359 -0.618717 0.271093
vn 0.737439 -0.618785 0.270719
vn 0.155895 -0.884127 0.440472
vn 0.155895 -0.884127 0.440472
vn 0.167416 -0.949463 0.265502
vn 0.167443 -0.949615 0.264941
vn -0.451498 -0.782018 0.429648
vn -0.451498 -0.782018 0.429648
vn -0.482944 -0.836483 0.258964
vn -0.483008 -0.836594 0.258483
vn -0.851711 -0.309997 0.422481
vn -0.851711 -0.309997 0.422481
vn -0.908738 -0.330753 0.254555
vn -0.908784 -0.330770 0.254369
vn -0.051284 -0.000000 0.998684
vn -0.307359 -0.000000 0.951594
vn -0.235248 0.197062 0.951749
vn -0.040237 0.033768 0.998619
vn -0.824433 -0.000000 0.565960
vn -0.964730 -0.000000 0.263242
vn -0.737737 0.620774 0.265301
vn -0.630340 0.529955 0.567291
vn -0.630342 -0.529956 0.567288
vn -0.737736 -0.620774 0.265301
vn -0.040237 -0.033768 0.998619
vn -0.235249 -0.197061 0.951748
vn -0.141386 -0.808983 0.570576
vn -0.165170 -0.948449 0.270489
vn -0.009704 -0.055088 0.998434
vn -0.053460 -0.301019 0.952118
vn 0.410316 -0.708474 0.574200
vn 0.482074 -0.831408 0.276342
vn 0.030149 -0.052199 0.998182
vn 0.151984 -0.263879 0.952507
vn 0.767968 -0.279047 0.576505
vn 0.902308 -0.327665 0.280135
vn 0.059579 -0.021680 0.997988
vn 0.285411 -0.104011 0.952745
vn 0.767968 0.279046 0.576505
vn 0.902308 0.327665 0.280135
vn 0.059578 0.021680 0.997988
vn 0.285409 0.104011 0.952745
vn 0.410315 0.708473 0.574202
vn 0.482074 0.831408 0.276342
vn 0.030148 0.052199 0.998182
vn 0.151981 0.263878 0.952507
vn -0.141384 0.808980 0.570580
vn -0.165170 0.948449 0.270489
vn -0.009704 0.055087 0.998434
vn -0.053459 0.301020 0.952118
vn 0.142132 0.000000 0.989848
vn 0.393217 0.000000 0.919446
vn 0.301387 0.252858 0.919363
vn 0.110840 0.093097 0.989468
vn 0.899312 0.327338 0.289978
vn 0.932370 0.339355 -0.124595
vn 0.932374 0.339357 -0.124565
vn 0.899312 0.327338 0.289978
vn 0.932370 -0.339355 -0.124595
vn 0.899312 -0.327337 0.289978
vn 0.899312 -0.327337 0.289978
vn 0.932374 -0.339356 -0.124565
vn 0.110841 -0.093096 0.989468
vn 0.301389 -0.252857 0.919363
vn 0.068442 0.387933 0.919143
vn 0.026286 0.149729 0.988378
vn 0.478691 0.829189 0.288619
vn 0.495982 0.859068 -0.126508
vn 0.495987 0.859076 -0.126432
vn 0.478691 0.829189 0.288619
vn -0.197244 0.341698 0.918878
vn -0.080927 0.139954 0.986845
vn -0.166407 0.943521 0.286491
vn -0.172189 0.976527 -0.129407
vn -0.172191 0.976538 -0.129320
vn -0.166407 0.943521 0.286491
vn -0.371138 0.135095 0.918698
vn -0.158834 0.057763 0.985614
vn -0.734384 0.616190 0.284589
vn -0.759348 0.637168 -0.131934
vn -0.759354 0.637173 -0.131877
vn -0.734384 0.616190 0.284589
vn -0.371138 -0.135094 0.918698
vn -0.158833 -0.057763 0.985614
vn -0.958876 0.000000 0.283824
vn -0.991128 -0.000000 -0.132909
vn -0.991128 -0.000000 -0.132909
vn -0.958877 0.000000 0.283824
vn -0.197243 -0.341697 0.918879
vn -0.080926 -0.139954 0.986845
vn -0.734386 -0.616188 0.284588
vn -0.759354 -0.637173 -0.131877
vn -0.759348 -0.637168 -0.131934
vn -0.734386 -0.616188 0.284588
vn 0.068442 -0.387932 0.919143
vn 0.026286 -0.149729 0.988378
vn -0.166408 -0.943520 0.286494
vn -0.172191 -0.976538 -0.129320
vn -0.172189 -0.976527 -0.129407
vn -0.166408 -0.943520 0.286494
vn 0.478694 -0.829186 0.288622
vn 0.495987 -0.859076 -0.126432
vn 0.495982 -0.859068 -0.126508
vn 0.478694 -0.829186 0.288622
s 1
g pPipe1
usemtl initialShadingGroup
f 45/86/1 37/68/2 10/11/3 11/12/4
s 2
f 44/85/5 45/86/6 11/12/7 12/13/8
s 3
f 43/84/9 44/85/10 12/13/11 13/14/12
s 4
f 42/83/13 43/84/14 13/14/15 14/15/16
s 5
f 41/82/17 42/83/18 14/15/19 15/16/20
s 6
f 40/81/21 41/82/22 15/16/23 16/17/24
s 7
f 39/80/25 40/81/26 16/17/27 17/18/28
s 8
f 38/79/29 39/80/30 17/18/31 18/19/32
s 9
f 37/78/33 38/79/34 18/19/35 10/20/36
s 10
f 11/12/37 10/11/38 1/21/39 2/22/40
f 12/13/41 11/12/37 2/22/40 3/23/42
f 13/14/43 12/13/41 3/23/42 4/24/44
f 14/15/45 13/14/43 4/24/44 5/25/46
f 15/16/47 14/15/45 5/25/46 6/26/48
f 16/17/49 15/16/47 6/26/48 7/27/50
f 17/18/51 16/17/49 7/27/50 8/28/52
f 18/19/53 17/18/51 8/28/52 9/29/54
f 10/20/38 18/19/53 9/29/54 1/30/39
s 11
f 1/31/55 2/32/56 20/33/57 19/34/58
f 2/35/56 3/36/59 21/37/60 20/38/57
f 3/39/59 4/40/61 22/41/62 21/42/60
f 4/43/61 5/44/63 23/45/64 22/46/62
f 5/47/63 6/48/65 24/49/66 23/50/64
f 6/51/65 7/52/67 25/53/68 24/54/66
f 7/55/67 8/56/69 26/57/70 25/58/68
f 8/59/69 9/60/71 27/61/72 26/62/70
f 9/63/71 1/64/55 19/65/58 27/66/72
s 12
f 1/10/73 9/9/74 29/77/75 28/67/76
f 9/9/77 8/8/78 30/76/79 29/77/80
f 8/8/81 7/7/82 31/75/83 30/76/84
f 7/7/85 6/6/86 32/74/87 31/75/88
f 6/6/89 5/5/90 33/73/91 32/74/92
f 5/5/93 4/4/94 34/72/95 33/73/96
f 4/4/97 3/3/98 35/71/99 34/72/100
f 3/3/101 2/2/102 36/70/103 35/71/104
f 2/2/105 1/1/106 28/69/107 36/70/108
s 21
f 47/89/109 46/88/110 70/114/111 71/115/112
s 12
f 46/88/113 48/92/114 72/116/115 70/114/116
f 48/91/114 46/87/113 49/93/117 51/95/118
s 21
f 46/87/110 47/90/109 50/94/119 49/93/120
s 12
f 51/95/118 49/93/117 52/96/121 54/98/122
s 21
f 49/93/120 50/94/119 53/97/123 52/96/124
s 12
f 54/98/122 52/96/121 55/99/125 57/101/126
s 21
f 52/96/124 53/97/123 56/100/127 55/99/128
s 12
f 57/101/126 55/99/125 58/102/129 60/104/130
s 21
f 55/99/128 56/100/127 59/103/131 58/102/132
s 12
f 60/104/130 58/102/129 61/105/133 63/107/134
s 21
f 58/102/132 59/103/131 62/106/135 61/105/136
s 12
f 63/107/134 61/105/133 64/108/137 66/110/138
s 21
f 61/105/136 62/106/135 65/109/139 64/108/140
s 12
f 66/110/138 64/108/137 67/111/141 69/113/142
s 21
f 64/108/140 65/109/139 68/112/143 67/111/144
s 12
f 69/113/142 67/111/141 70/114/116 72/116/115
s 21
f 67/111/144 68/112/143 71/115/112 70/114/111
f 74/119/145 73/118/146 76/123/147 77/124/148
s 1
f 73/118/149 75/122/150 78/125/151 76/123/152
s 9
f 75/121/153 73/117/154 97/144/155 99/146/156
s 21
f 73/117/146 74/120/145 98/145/157 97/144/158
f 77/124/148 76/123/147 79/126/159 80/127/160
s 2
f 76/123/161 78/125/162 81/128/163 79/126/164
s 21
f 80/127/160 79/126/159 82/129/165 83/130/166
s 3
f 79/126/167 81/128/168 84/131/169 82/129/170
s 21
f 83/130/166 82/129/165 85/132/171 86/133/172
s 4
f 82/129/173 84/131/174 87/134/175 85/132/176
s 21
f 86/133/172 85/132/171 88/135/177 89/136/178
s 5
f 85/132/179 87/134/180 90/137/181 88/135/182
s 21
f 89/136/178 88/135/177 91/138/183 92/139/184
s 6
f 88/135/185 90/137/186 93/140/187 91/138/188
s 21
f 92/139/184 91/138/183 94/141/189 95/142/190
s 7
f 91/138/191 93/140/192 96/143/193 94/141/194
s 21
f 95/142/190 94/141/189 97/144/158 98/145/157
s 8
f 94/141/195 96/143/196 99/146/197 97/144/198
s 12
f 36/70/108 28/69/107 48/91/114 51/95/118
f 35/71/104 36/70/103 51/95/118 54/98/122
f 34/72/100 35/71/99 54/98/122 57/101/126
f 33/73/96 34/72/95 57/101/126 60/104/130
f 32/74/92 33/73/91 60/104/130 63/107/134
f 31/75/88 32/74/87 63/107/134 66/110/138
f 30/76/84 31/75/83 66/110/138 69/113/142
f 29/77/80 30/76/79 69/113/142 72/116/115
f 28/67/76 29/77/75 72/116/115 48/92/114
s 21
f 50/94/119 47/90/109 74/119/145 77/124/148
f 53/97/123 50/94/119 77/124/148 80/127/160
f 56/100/127 53/97/123 80/127/160 83/130/166
f 59/103/131 56/100/127 83/130/166 86/133/172
f 62/106/135 59/103/131 86/133/172 89/136/178
f 65/109/139 62/106/135 89/136/178 92/139/184
f 68/112/143 65/109/139 92/139/184 95/142/190
f 71/115/112 68/112/143 95/142/190 98/145/157
f 47/89/109 71/115/112 98/145/157 74/120/145
s 9
f 75/121/153 99/146/156 38/79/34 37/78/33
s 8
f 99/146/197 96/143/196 39/80/30 38/79/29
s 7
f 96/143/193 93/140/192 40/81/26 39/80/25
s 6
f 93/140/187 90/137/186 41/82/22 40/81/21
s 5
f 90/137/181 87/134/180 42/83/18 41/82/17
s 4
f 87/134/175 84/131/174 43/84/14 42/83/13
s 3
f 84/131/169 81/128/168 44/85/10 43/84/9
s 2
f 81/128/163 78/125/162 45/86/6 44/85/5
s 1
f 78/125/151 75/122/150 37/68/2 45/86/1
