# This file uses centimeters as units for non-parametric coordinates.

mtllib Stairs.mtl
g Stairs:default1
v -7.501957 2.236002 -2.113324
v 7.594632 2.236002 -2.113324
v -7.501957 2.236003 -3.522206
v 7.594632 2.236003 -3.522206
v -7.501957 0.000000 -3.522206
v 7.594632 0.000000 -3.522206
v 7.594632 1.791202 -2.113324
v -7.501957 1.791202 -2.113324
v 7.594632 1.346402 -0.704441
v -7.501957 1.346402 -0.704441
v 7.594632 1.791202 -0.704441
v -7.501957 1.791202 -0.704441
v 7.594632 0.901602 0.704442
v -7.501957 0.901602 0.704442
v 7.594632 1.346402 0.704442
v -7.501957 1.346402 0.704442
v 7.594632 0.456802 2.113323
v -7.501957 0.456802 2.113323
v 7.594632 0.901602 2.113323
v -7.501957 0.901602 2.113323
v -7.501957 0.000000 3.522206
v 7.594632 0.000000 3.522205
v 7.594632 0.456802 3.522205
v -7.501957 0.456802 3.522206
vt 0.805540 0.103188
vt 0.836827 0.103188
vt 0.836827 0.202286
vt 0.773410 0.499581
vt 0.868113 0.202286
vt 0.868113 0.301384
vt 0.773410 0.004089
vt 0.805540 0.004089
vt 0.899400 0.301384
vt 0.899400 0.400483
vt 0.930686 0.400483
vt 0.930686 0.499581
vt 0.837062 0.992579
vt 0.805595 0.992579
vt 0.837062 0.895530
vt 0.805595 0.507330
vt 0.867701 0.798480
vt 0.898341 0.701430
vt 0.898341 0.798480
vt 0.867701 0.895530
vt 0.928981 0.604380
vt 0.928981 0.701430
vt 0.959621 0.507330
vt 0.959621 0.604380
vt 0.722891 0.972143
vt 0.626501 0.972143
vt 0.626501 0.031004
vt 0.722891 0.031004
vt 0.481843 0.031004
vt 0.583102 0.031004
vt 0.583102 0.972143
vt 0.481843 0.972143
vt 0.345987 0.031004
vt 0.442554 0.031004
vt 0.442554 0.972143
vt 0.345987 0.972143
vt 0.217831 0.031004
vt 0.312632 0.031004
vt 0.312632 0.972143
vt 0.217831 0.972143
vt 0.083722 0.031004
vt 0.180791 0.031004
vt 0.180791 0.972143
vt 0.083722 0.972143
vt 0.050484 0.972143
vt 0.050484 0.031004
vn 0.000000 0.000000 1.000000
vn 0.000000 0.000000 1.000000
vn 0.000000 0.000000 1.000000
vn 0.000000 0.000000 1.000000
vn 0.000000 1.000000 0.000000
vn 0.000000 1.000000 0.000000
vn 0.000000 1.000000 0.000000
vn 0.000000 1.000000 0.000000
vn 0.000000 0.000000 1.000000
vn 0.000000 0.000000 1.000000
vn 0.000000 0.000000 1.000000
vn 0.000000 0.000000 1.000000
vn 0.000000 0.000002 1.000000
vn 0.000000 0.000002 1.000000
vn 0.000000 0.000002 1.000000
vn 0.000000 0.000002 1.000000
vn 0.000000 0.000000 1.000000
vn 0.000000 0.000000 1.000000
vn 0.000000 0.000000 1.000000
vn 0.000000 0.000000 1.000000
vn 0.000000 0.000002 1.000000
vn 0.000000 0.000002 1.000000
vn 0.000000 0.000002 1.000000
vn 0.000000 0.000002 1.000000
vn 0.000000 1.000000 0.000000
vn 0.000000 1.000000 0.000000
vn 0.000000 1.000000 0.000000
vn 0.000000 1.000000 0.000000
vn 0.000000 1.000000 0.000000
vn 0.000000 1.000000 0.000000
vn 0.000000 1.000000 0.000000
vn 0.000000 1.000000 0.000000
vn 0.000000 1.000000 0.000000
vn 0.000000 1.000000 0.000000
vn 0.000000 1.000000 0.000000
vn 0.000000 1.000000 0.000000
vn -1.000000 0.000000 0.000000
vn -1.000000 0.000000 0.000000
vn -1.000000 0.000000 0.000000
vn -1.000000 0.000000 0.000000
vn -1.000000 0.000000 0.000000
vn -1.000000 0.000000 0.000000
vn -1.000000 0.000000 0.000000
vn -1.000000 0.000000 0.000000
vn -1.000000 0.000000 0.000000
vn -1.000000 0.000000 0.000000
vn -1.000000 0.000000 0.000000
vn -1.000000 0.000000 0.000000
vn -1.000000 0.000000 0.000000
vn -1.000000 0.000000 0.000000
vn -1.000000 0.000000 0.000000
vn -1.000000 0.000000 0.000000
vn -1.000000 0.000000 0.000000
vn -1.000000 0.000000 0.000000
vn -1.000000 0.000000 0.000000
vn -1.000000 0.000000 0.000000
vn 1.000000 0.000000 0.000000
vn 1.000000 0.000000 0.000000
vn 1.000000 0.000000 0.000000
vn 1.000000 0.000000 0.000000
vn 1.000000 0.000000 0.000000
vn 1.000000 0.000000 0.000000
vn 1.000000 0.000000 0.000000
vn 1.000000 0.000000 0.000000
vn 1.000000 0.000000 0.000000
vn 1.000000 0.000000 0.000000
vn 1.000000 0.000000 0.000000
vn 1.000000 0.000000 0.000000
vn 1.000000 0.000000 0.000000
vn 1.000000 0.000000 0.000000
vn 1.000000 0.000000 0.000000
vn 1.000000 0.000000 0.000000
vn 1.000000 0.000000 0.000000
vn 1.000000 0.000000 0.000000
vn 1.000000 0.000000 0.000000
vn 1.000000 0.000000 0.000000
vn 1.000000 0.000000 0.000000
vn 1.000000 0.000000 0.000000
vn 0.000000 1.000000 0.000000
vn 0.000000 1.000000 0.000000
vn 0.000000 1.000000 0.000000
vn 0.000000 1.000000 0.000000
s off
g Stairs:group2 Stairs:pCube5 Stairs:polySurface1 group2
usemtl Stairs:initialShadingGroup
f 24/44/1 21/45/2 22/46/3 23/41/4
f 3/25/5 1/26/6 2/27/7 4/28/8
f 1/26/9 8/31/10 7/30/11 2/27/12
f 12/32/13 10/35/14 9/34/15 11/29/16
f 16/36/17 14/39/18 13/38/19 15/33/20
f 20/40/21 18/43/22 17/42/23 19/37/24
f 11/29/25 7/30/26 8/31/27 12/32/28
f 15/33/29 9/34/30 10/35/31 16/36/32
f 19/37/33 13/38/34 14/39/35 20/40/36
f 18/1/37 20/2/38 14/3/39 5/4/40
f 14/3/41 16/5/42 10/6/43 5/4/44
f 10/6/45 12/9/46 8/10/47 5/4/48
f 8/10/49 1/11/50 3/12/51 5/4/52
f 5/4/53 21/7/54 24/8/55 18/1/56
f 23/13/57 22/14/58 17/15/59
f 17/15/60 22/14/61 6/16/62 13/17/63
f 6/16/64 4/23/65 2/24/66 7/21/67
f 7/21/68 11/22/69 9/18/70 6/16/71
f 9/18/72 15/19/73 13/17/74 6/16/75
f 19/20/76 17/15/77 13/17/78
f 23/41/79 17/42/80 18/43/81 24/44/82
